<?xml version="1.0" encoding="utf-8"?>
<!-- Generator: Adobe Adobe Illustrator 24.2.0, SVG Export Plug-In . SVG Version: 6.00 Build 0)  -->
<svg version="1.1" id="Layer_1" xmlns:ev="http://www.w3.org/2001/xml-events"
	 xmlns="http://www.w3.org/2000/svg" xmlns:xlink="http://www.w3.org/1999/xlink" x="0px" y="0px" width="7107px" height="1402px"
	 viewBox="0 0 7107 1402" style="enable-background:new 0 0 7107 1402;" xml:space="preserve">
<style type="text/css">
	.st0{fill:#F26B00;}
	.st1{fill:#FFFFFF;}
	.st2{fill:none;stroke:#000000;stroke-width:0.9979;stroke-miterlimit:2.4755;}
	.st3{font-family:'Helvetica';}
	.st4{font-size:17.9238px;}
	.st5{font-size:15.9323px;}
	.st6{stroke:#000000;stroke-width:0.9979;stroke-miterlimit:2.4755;}
	.st7{font-family:'TimesNewRomanPSMT';}
	.st8{font-size:13.9408px;}
	.st9{fill:none;stroke:#000000;stroke-width:0.9979;stroke-miterlimit:2.4755;stroke-dasharray:0.9979,4.9893;}
</style>
<symbol  id="RelayIcon" viewBox="-9.3 -5.5 18.5 10.9">
	<g>
		<path class="st0" d="M-5.8-3.7c0,1-0.8,1.7-1.7,1.7c-1,0-1.7-0.8-1.7-1.7s0.8-1.7,1.7-1.7C-6.6-5.5-5.8-4.7-5.8-3.7"/>
		<path class="st0" d="M7.5,4.2h-9.8c-1.3,0-2.3-1.1-2.3-2.3s1.1-2.3,2.3-2.3h4.4c0.8,0,1.4-0.6,1.4-1.4S2.9-3.3,2.2-3.3h-9.7
			C-7.8-3.3-8-3.5-8-3.7C-8-4-7.8-4.2-7.5-4.2h9.7c1.3,0,2.3,1.1,2.3,2.3S3.5,0.5,2.2,0.5h-4.4c-0.8,0-1.4,0.6-1.4,1.4
			c0,0.8,0.6,1.4,1.4,1.4h9.8C7.8,3.2,8,3.4,8,3.7C8,4,7.8,4.2,7.5,4.2L7.5,4.2z"/>
		<path class="st0" d="M5.8,3.7c0-1,0.8-1.7,1.7-1.7s1.7,0.8,1.7,1.7S8.5,5.5,7.5,5.5S5.8,4.7,5.8,3.7"/>
	</g>
</symbol>
<g id="viewport-20241121191022568" transform="matrix(0.6188734609658242,0,0,0.6188734609658242,-513.482640936421,-25.699039113022238)">
	<g id="graph0" transform="scale(1 1) rotate(0) translate(4 1397.8)">
		<polygon class="st1" points="825.7,899 825.7,-1356.3 12309.5,-1356.3 12309.5,899 		"/>
		<g id="TYPE::Query">
			<g id="TYPE_TITLE::Query">
				<polygon class="st2" points="845.1,-523.2 845.1,-574.1 1144.7,-574.1 1144.7,-523.2 				"/>
				<text transform="matrix(1.6229 0 0 1.6158 955.2833 -539.9485)" class="st3 st4">Query</text>
			</g>
			<g id="FIELD::Query::gardens">
				<polygon class="st2" points="845.1,-473 845.1,-523.2 1144.7,-523.2 1144.7,-473 				"/>
				<text transform="matrix(1.6229 0 0 1.6158 854.7919 -492.005)" class="st3 st5">gardens</text>
				<g>
					<defs>
						<rect id="SVGID_1_" x="990.9" y="-508.4" width="22" height="21.9"/>
					</defs>
					<clipPath id="SVGID_2_">
						<use xlink:href="#SVGID_1_"  style="overflow:visible;"/>
					</clipPath>
					<g transform="matrix(1 0 0 1 0 0)" style="clip-path:url(#SVGID_2_);">
						
							<use xlink:href="#RelayIcon"  width="18.5" height="10.9" x="-9.3" y="-5.5" transform="matrix(1.6159 0 0 1.6088 1001.8726 -497.4729)" style="overflow:visible;"/>
					</g>
				</g>
				<text transform="matrix(1.6229 0 0 1.6158 1020.033 -492.005)" class="st3 st5">[</text>
				<text transform="matrix(1.6229 0 0 1.6158 1027.2087 -492.005)" class="st3 st5">Garden</text>
				<text transform="matrix(1.6229 0 0 1.6158 1113.451 -492.005)" class="st3 st5">!]!</text>
			</g>
			<g id="FIELD::Query::me">
				<polygon class="st2" points="845.1,-422.8 845.1,-473 1144.7,-473 1144.7,-422.8 				"/>
				<text transform="matrix(1.6229 0 0 1.6158 854.7919 -441.8098)" class="st3 st5">me</text>
				<text transform="matrix(1.6229 0 0 1.6158 1073.2302 -441.8098)" class="st3 st5">User</text>
				<text transform="matrix(1.6229 0 0 1.6158 1127.8185 -441.8098)" class="st3 st5">!</text>
			</g>
			<g id="FIELD::Query::primaryGarden">
				<polygon class="st2" points="845.1,-372.6 845.1,-422.8 1144.7,-422.8 1144.7,-372.6 				"/>
				<text transform="matrix(1.6229 0 0 1.6158 854.7919 -391.6115)" class="st3 st5">primaryGarden</text>
				<text transform="matrix(1.6229 0 0 1.6158 1041.573 -391.6115)" class="st3 st5">Garden</text>
				<text transform="matrix(1.6229 0 0 1.6158 1127.8185 -391.6115)" class="st3 st5">!</text>
			</g>
		</g>
		<g id="TYPE::Garden">
			<g id="TYPE_TITLE::Garden">
				<polygon class="st2" points="2262.1,-521.9 2262.1,-572.8 2695.4,-572.8 2695.4,-521.9 				"/>
				<text transform="matrix(1.6229 0 0 1.6158 2430.2568 -538.6616)" class="st3 st4">Garden</text>
			</g>
			<g id="FIELD::Garden::cropSchedules">
				<polygon class="st2" points="2262.1,-471.7 2262.1,-521.9 2695.4,-521.9 2695.4,-471.7 				"/>
				<text transform="matrix(1.6229 0 0 1.6158 2271.813 -490.7182)" class="st3 st5">cropSchedules</text>
				<g>
					<defs>
						<rect id="SVGID_3_" x="2464" y="-506.8" width="22" height="21.9"/>
					</defs>
					<clipPath id="SVGID_4_">
						<use xlink:href="#SVGID_3_"  style="overflow:visible;"/>
					</clipPath>
					<g transform="matrix(1 0 0 1 0 -3.051758e-05)" style="clip-path:url(#SVGID_4_);">
						
							<use xlink:href="#RelayIcon"  width="18.5" height="10.9" x="-9.3" y="-5.5" transform="matrix(1.6159 0 0 1.6088 2474.9856 -495.8641)" style="overflow:visible;"/>
					</g>
				</g>
				<text transform="matrix(1.6229 0 0 1.6158 2493.1436 -490.7182)" class="st3 st5">[</text>
				<text transform="matrix(1.6229 0 0 1.6158 2500.3376 -490.7182)" class="st3 st5">CropSchedule</text>
				<text transform="matrix(1.6229 0 0 1.6158 2664.1907 -490.7182)" class="st3 st5">!]!</text>
			</g>
			<g id="FIELD::Garden::firstFrostMonthday">
				<polygon class="st2" points="2262.1,-421.5 2262.1,-471.7 2695.4,-471.7 2695.4,-421.5 				"/>
				<text transform="matrix(1.6229 0 0 1.6158 2271.813 -440.523)" class="st3 st5">firstFrostMonthday</text>
				<text transform="matrix(1.6229 0 0 1.6158 2567.896 -438.9127)" class="st3 st5">MonthDay</text>
			</g>
			<g id="FIELD::Garden::firstHardFrostMonthday">
				<polygon class="st2" points="2262.1,-371.3 2262.1,-421.5 2695.4,-421.5 2695.4,-371.3 				"/>
				<text transform="matrix(1.6229 0 0 1.6158 2271.813 -390.3239)" class="st3 st5">firstHardFrostMonthday</text>
				<text transform="matrix(1.6229 0 0 1.6158 2567.896 -388.7175)" class="st3 st5">MonthDay</text>
			</g>
			<g id="FIELD::Garden::gardenPlan">
				<polygon class="st2" points="2262.1,-321.1 2262.1,-371.3 2695.4,-371.3 2695.4,-321.1 				"/>
				<text transform="matrix(1.6229 0 0 1.6158 2271.813 -340.1318)" class="st3 st5">gardenPlan</text>
				<text transform="matrix(1.6229 0 0 1.6158 2547.7446 -338.5207)" class="st3 st5">GardenPlan</text>
			</g>
			<g id="FIELD::Garden::id">
				<polygon class="st2" points="2262.1,-270.9 2262.1,-321.1 2695.4,-321.1 2695.4,-270.9 				"/>
				<text transform="matrix(1.6229 0 0 1.6158 2271.813 -289.9334)" class="st3 st5">id</text>
				<text transform="matrix(1.6229 0 0 1.6158 2652.7031 -289.9334)" class="st3 st5">ID</text>
				<text transform="matrix(1.6229 0 0 1.6158 2678.5549 -289.9334)" class="st3 st5">!</text>
			</g>
			<g id="FIELD::Garden::lastFrostMonthday">
				<polygon class="st2" points="2262.1,-220.8 2262.1,-270.9 2695.4,-270.9 2695.4,-220.8 				"/>
				<text transform="matrix(1.6229 0 0 1.6158 2271.813 -239.7398)" class="st3 st5">lastFrostMonthday</text>
				<text transform="matrix(1.6229 0 0 1.6158 2567.896 -238.135)" class="st3 st5">MonthDay</text>
			</g>
			<g id="FIELD::Garden::lastHardFrostMonthday">
				<polygon class="st2" points="2262.1,-170.6 2262.1,-220.8 2695.4,-220.8 2695.4,-170.6 				"/>
				<text transform="matrix(1.6229 0 0 1.6158 2271.813 -189.5478)" class="st3 st5">lastHardFrostMonthday</text>
				<text transform="matrix(1.6229 0 0 1.6158 2567.896 -187.9367)" class="st3 st5">MonthDay</text>
			</g>
			<g id="FIELD::Garden::lockTasks">
				<polygon class="st2" points="2262.1,-120.4 2262.1,-170.6 2695.4,-170.6 2695.4,-120.4 				"/>
				<text transform="matrix(1.6229 0 0 1.6158 2271.813 -139.3447)" class="st3 st5">lockTasks</text>
				<text transform="matrix(1.6229 0 0 1.6158 2583.6702 -139.3447)" class="st3 st5">Boolean</text>
				<text transform="matrix(1.6229 0 0 1.6158 2678.5549 -139.3447)" class="st3 st5">!</text>
			</g>
			<g id="FIELD::Garden::title">
				<polygon class="st2" points="2262.1,-70.2 2262.1,-120.4 2695.4,-120.4 2695.4,-70.2 				"/>
				<text transform="matrix(1.6229 0 0 1.6158 2271.813 -89.1527)" class="st3 st5">title</text>
				<text transform="matrix(1.6229 0 0 1.6158 2611.0093 -89.1527)" class="st3 st5">String</text>
				<text transform="matrix(1.6229 0 0 1.6158 2678.5549 -89.1527)" class="st3 st5">!</text>
			</g>
			<g id="FIELD::Garden::winterGardeningEnabled">
				<polygon class="st2" points="2262.1,-20 2262.1,-70.2 2695.4,-70.2 2695.4,-20 				"/>
				<text transform="matrix(1.6229 0 0 1.6158 2271.813 -38.9575)" class="st3 st5">winterGardeningEnabled</text>
				<text transform="matrix(1.6229 0 0 1.6158 2590.842 -37.3495)" class="st3 st5">Boolean</text>
			</g>
		</g>
		<g>
			<path class="st2" d="M1146.8-497.5c162.2,0,175.3-113.2,334-146.4c151.6-31.8,198.3-37.7,348.5,0
				c142.9,35.9,288.5,109.9,405.4,180.5"/>
			<polygon class="st6" points="2237.1,-467.5 2247.9,-454.3 2231.2,-457.9 			"/>
			<text transform="matrix(1.6229 0 0 1.6158 1588.4498 -676.3765)" class="st7 st8">Query:gardens</text>
			<path class="st2" d="M1146.8-497.5c162.2,0,175.3-113.2,334-146.4c151.6-31.8,198.3-37.7,348.5,0
				c142.9,35.9,288.5,109.9,405.4,180.5"/>
		</g>
		<g>
			<path class="st2" d="M1146.8-397.7c167.4,0,171.4,133.8,334,173.4c251.1,61.3,547.6,26.8,751.5-12.8"/>
			<polygon class="st6" points="2230.7,-242.8 2247.6,-240.4 2232.9,-231.8 			"/>
			<text transform="matrix(1.6229 0 0 1.6158 1554.5337 -232.3376)" class="st7 st8">Query:primaryGarden</text>
			<path class="st2" d="M1146.8-397.7c167.4,0,171.4,133.8,334,173.4c251.1,61.3,547.6,26.8,751.5-12.8"/>
		</g>
		<g id="TYPE::User">
			<g id="TYPE_TITLE::User">
				<polygon class="st2" points="1493.7,-572.8 1493.7,-623.6 1816.4,-623.6 1816.4,-572.8 				"/>
				<text transform="matrix(1.6229 0 0 1.6158 1624.3368 -589.5006)" class="st3 st4">User</text>
			</g>
			<g id="FIELD::User::canAddGardens">
				<polygon class="st2" points="1493.7,-522.6 1493.7,-572.8 1816.4,-572.8 1816.4,-522.6 				"/>
				<text transform="matrix(1.6229 0 0 1.6158 1503.402 -541.5604)" class="st3 st5">canAddGardens</text>
				<text transform="matrix(1.6229 0 0 1.6158 1704.616 -541.5604)" class="st3 st5">Boolean</text>
				<text transform="matrix(1.6229 0 0 1.6158 1799.4991 -541.5604)" class="st3 st5">!</text>
			</g>
			<g id="FIELD::User::email">
				<polygon class="st2" points="1493.7,-472.4 1493.7,-522.6 1816.4,-522.6 1816.4,-472.4 				"/>
				<text transform="matrix(1.6229 0 0 1.6158 1503.402 -491.3636)" class="st3 st5">email</text>
				<text transform="matrix(1.6229 0 0 1.6158 1731.9542 -491.3636)" class="st3 st5">String</text>
				<text transform="matrix(1.6229 0 0 1.6158 1799.4991 -491.3636)" class="st3 st5">!</text>
			</g>
			<g id="FIELD::User::firstname">
				<polygon class="st2" points="1493.7,-422.2 1493.7,-472.4 1816.4,-472.4 1816.4,-422.2 				"/>
				<text transform="matrix(1.6229 0 0 1.6158 1503.402 -441.1668)" class="st3 st5">firstname</text>
				<text transform="matrix(1.6229 0 0 1.6158 1731.9542 -441.1668)" class="st3 st5">String</text>
				<text transform="matrix(1.6229 0 0 1.6158 1799.4991 -441.1668)" class="st3 st5">!</text>
			</g>
			<g id="FIELD::User::id">
				<polygon class="st2" points="1493.7,-372 1493.7,-422.2 1816.4,-422.2 1816.4,-372 				"/>
				<text transform="matrix(1.6229 0 0 1.6158 1503.402 -390.97)" class="st3 st5">id</text>
				<text transform="matrix(1.6229 0 0 1.6158 1773.6442 -390.97)" class="st3 st5">ID</text>
				<text transform="matrix(1.6229 0 0 1.6158 1799.4991 -390.97)" class="st3 st5">!</text>
			</g>
			<g id="FIELD::User::lastname">
				<polygon class="st2" points="1493.7,-321.8 1493.7,-372 1816.4,-372 1816.4,-321.8 				"/>
				<text transform="matrix(1.6229 0 0 1.6158 1503.402 -340.7756)" class="st3 st5">lastname</text>
				<text transform="matrix(1.6229 0 0 1.6158 1731.9542 -340.7756)" class="st3 st5">String</text>
				<text transform="matrix(1.6229 0 0 1.6158 1799.4991 -340.7756)" class="st3 st5">!</text>
			</g>
			<g id="FIELD::User::primaryGarden">
				<polygon class="st2" points="1493.7,-271.6 1493.7,-321.8 1816.4,-321.8 1816.4,-271.6 				"/>
				<text transform="matrix(1.6229 0 0 1.6158 1503.402 -290.5741)" class="st3 st5">primaryGarden</text>
				<text transform="matrix(1.6229 0 0 1.6158 1720.4501 -288.9693)" class="st3 st5">Garden</text>
			</g>
		</g>
		<g>
			<path class="st2" d="M1146.8-447.6c104.7,0,221.7,0,316.8,0"/>
			<polygon class="st6" points="1463.3,-453.2 1479.5,-447.6 1463.3,-442 			"/>
			<text transform="matrix(1.6229 0 0 1.6158 1273.9747 -454.3586)" class="st7 st8">Query:me</text>
			<path class="st2" d="M1146.8-447.6c104.7,0,221.7,0,316.8,0"/>
		</g>
		<g id="TYPE::CropSchedule">
			<g id="TYPE_TITLE::CropSchedule">
				<polygon class="st2" points="3248,-733.3 3248,-784.2 3638.2,-784.2 3638.2,-733.3 				"/>
				<text transform="matrix(1.6229 0 0 1.6158 3350.9341 -750.0637)" class="st3 st4">CropSchedule</text>
			</g>
			<g id="FIELD::CropSchedule::disabled">
				<polygon class="st2" points="3248,-683.1 3248,-733.3 3638.2,-733.3 3638.2,-683.1 				"/>
				<text transform="matrix(1.6229 0 0 1.6158 3257.7124 -702.1211)" class="st3 st5">disabled</text>
				<text transform="matrix(1.6229 0 0 1.6158 3526.427 -702.1211)" class="st3 st5">Boolean</text>
				<text transform="matrix(1.6229 0 0 1.6158 3621.3079 -702.1211)" class="st3 st5">!</text>
			</g>
			<g id="FIELD::CropSchedule::gardenCrops">
				<polygon class="st2" points="3248,-632.9 3248,-683.1 3638.2,-683.1 3638.2,-632.9 				"/>
				<text transform="matrix(1.6229 0 0 1.6158 3257.7124 -651.9251)" class="st3 st5">gardenCrops</text>
				<g>
					<defs>
						<rect id="SVGID_5_" x="3428.3" y="-669.3" width="22" height="21.9"/>
					</defs>
					<clipPath id="SVGID_6_">
						<use xlink:href="#SVGID_5_"  style="overflow:visible;"/>
					</clipPath>
					<g transform="matrix(1 0 0 1 -2.441406e-04 0)" style="clip-path:url(#SVGID_6_);">
						
							<use xlink:href="#RelayIcon"  width="18.5" height="10.9" x="-9.3" y="-5.5" transform="matrix(1.6159 0 0 1.6088 3439.3289 -658.3574)" style="overflow:visible;"/>
					</g>
				</g>
				<text transform="matrix(1.6229 0 0 1.6158 3457.4895 -651.9251)" class="st3 st5">[</text>
				<text transform="matrix(1.6229 0 0 1.6158 3464.6794 -651.9251)" class="st3 st5">GardenCrop</text>
				<text transform="matrix(1.6229 0 0 1.6158 3606.9429 -651.9251)" class="st3 st5">!]!</text>
			</g>
			<g id="FIELD::CropSchedule::id">
				<polygon class="st2" points="3248,-582.7 3248,-632.9 3638.2,-632.9 3638.2,-582.7 				"/>
				<text transform="matrix(1.6229 0 0 1.6158 3257.7124 -601.7283)" class="st3 st5">id</text>
				<text transform="matrix(1.6229 0 0 1.6158 3595.4546 -601.7283)" class="st3 st5">ID</text>
				<text transform="matrix(1.6229 0 0 1.6158 3621.3079 -601.7283)" class="st3 st5">!</text>
			</g>
			<g id="FIELD::CropSchedule::name">
				<polygon class="st2" points="3248,-532.5 3248,-582.7 3638.2,-582.7 3638.2,-532.5 				"/>
				<text transform="matrix(1.6229 0 0 1.6158 3257.7124 -551.5323)" class="st3 st5">name</text>
				<text transform="matrix(1.6229 0 0 1.6158 3553.7795 -551.5323)" class="st3 st5">String</text>
				<text transform="matrix(1.6229 0 0 1.6158 3621.3079 -551.5323)" class="st3 st5">!</text>
			</g>
		</g>
		<g>
			<path class="st2" d="M2696.9-497.5c178.3,0,375.3-44.6,521.8-86.8"/>
			<polygon class="st6" points="3216.8,-590.1 3233.8,-589.2 3219.9,-579.3 			"/>
			<text transform="matrix(1.6229 0 0 1.6158 2869.322 -560.5433)" class="st7 st8">Garden:cropSchedules</text>
			<path class="st2" d="M2696.9-497.5c178.3,0,375.3-44.6,521.8-86.8"/>
		</g>
		<g id="TYPE::MonthDay">
			<g id="TYPE_TITLE::MonthDay">
				<polygon class="st2" points="3368.7,-440.2 3368.7,-491 3517.5,-491 3517.5,-440.2 				"/>
				<text transform="matrix(1.6229 0 0 1.6158 3376.8237 -456.9315)" class="st3 st4">MonthDay</text>
			</g>
			<g id="FIELD::MonthDay::day">
				<polygon class="st2" points="3368.7,-390 3368.7,-440.2 3517.5,-440.2 3517.5,-390 				"/>
				<text transform="matrix(1.6229 0 0 1.6158 3378.4397 -408.9912)" class="st3 st5">day</text>
				<text transform="matrix(1.6229 0 0 1.6158 3471.8372 -408.9912)" class="st3 st5">Int</text>
				<text transform="matrix(1.6229 0 0 1.6158 3500.5862 -408.9912)" class="st3 st5">!</text>
			</g>
			<g id="FIELD::MonthDay::month">
				<polygon class="st2" points="3368.7,-339.8 3368.7,-390 3517.5,-390 3517.5,-339.8 				"/>
				<text transform="matrix(1.6229 0 0 1.6158 3378.4397 -358.7944)" class="st3 st5">month</text>
				<text transform="matrix(1.6229 0 0 1.6158 3471.8372 -358.7944)" class="st3 st5">Int</text>
				<text transform="matrix(1.6229 0 0 1.6158 3500.5862 -358.7944)" class="st3 st5">!</text>
			</g>
		</g>
		<g>
			<path class="st2" d="M2696.9-446c187.5,0,234.5-2,421.8,6.4c73.6,3.3,156.5,9.6,219.9,14.9"/>
			<polygon class="st6" points="3338.7,-430.2 3354.3,-423.2 3337.8,-419 			"/>
			<text transform="matrix(1.6229 0 0 1.6158 2847.3071 -452.7483)" class="st7 st8">Garden:firstFrostMonthday</text>
			<path class="st2" d="M2696.9-446c187.5,0,234.5-2,421.8,6.4c73.6,3.3,156.5,9.6,219.9,14.9"/>
		</g>
		<g>
			<path class="st2" d="M2696.9-396.1c229.1,0,497.7-9.3,641.4-14.9"/>
			<polygon class="st6" points="3338.1,-416.7 3354.5,-411.8 3338.5,-405.5 			"/>
			<text transform="matrix(1.6229 0 0 1.6158 2824.6938 -410.9203)" class="st7 st8">Garden:firstHardFrostMonthday</text>
			<path class="st2" d="M2696.9-396.1c229.1,0,497.7-9.3,641.4-14.9"/>
		</g>
		<g>
			<path class="st2" d="M2696.9-246.5c234.4,0,500.2-80.6,642.2-130.4"/>
			<polygon class="st6" points="3337.1,-382.8 3354.2,-382.8 3340.9,-372.1 			"/>
			<text transform="matrix(1.6229 0 0 1.6158 2849.8208 -312.7777)" class="st7 st8">Garden:lastFrostMonthday</text>
			<path class="st2" d="M2696.9-246.5c234.4,0,500.2-80.6,642.2-130.4"/>
		</g>
		<g>
			<path class="st2" d="M2696.9-195c187.9,0,245.9,37.9,421.8-27.7c60.9-22.7,61.3-53.8,116.3-88.2c33.2-20.8,71.1-40.9,105.2-57.8"
				/>
			<polygon class="st6" points="3337.6,-374.4 3354.6,-376.5 3342.6,-364.3 			"/>
			<text transform="matrix(1.6229 0 0 1.6158 2827.2053 -230.7312)" class="st7 st8">Garden:lastHardFrostMonthday</text>
			<path class="st2" d="M2696.9-195c187.9,0,245.9,37.9,421.8-27.7c60.9-22.7,61.3-53.8,116.3-88.2c33.2-20.8,71.1-40.9,105.2-57.8"
				/>
		</g>
		<g id="TYPE::GardenPlan">
			<g id="TYPE_TITLE::GardenPlan">
				<polygon class="st2" points="6189.2,-22.2 6189.2,-73.1 6680.1,-73.1 6680.1,-22.2 				"/>
				<text transform="matrix(1.6229 0 0 1.6158 6357.0317 -38.9575)" class="st3 st4">GardenPlan</text>
			</g>
			<g id="FIELD::GardenPlan::garden">
				<polygon class="st2" points="6189.2,28 6189.2,-22.2 6680.1,-22.2 6680.1,28 				"/>
				<text transform="matrix(1.6229 0 0 1.6158 6198.9126 8.986)" class="st3 st5">garden</text>
				<text transform="matrix(1.6229 0 0 1.6158 6576.9541 8.986)" class="st3 st5">Garden</text>
				<text transform="matrix(1.6229 0 0 1.6158 6663.1978 8.986)" class="st3 st5">!</text>
			</g>
			<g id="FIELD::GardenPlan::groups">
				<polygon class="st2" points="6189.2,78.2 6189.2,28 6680.1,28 6680.1,78.2 				"/>
				<text transform="matrix(1.6229 0 0 1.6158 6198.9126 59.1812)" class="st3 st5">groups</text>
				<g>
					<defs>
						<rect id="SVGID_7_" x="6540.6" y="41.8" width="22" height="21.9"/>
					</defs>
					<clipPath id="SVGID_8_">
						<use xlink:href="#SVGID_7_"  style="overflow:visible;"/>
					</clipPath>
					<g transform="matrix(1 0 0 1 0 0)" style="clip-path:url(#SVGID_8_);">
						
							<use xlink:href="#RelayIcon"  width="18.5" height="10.9" x="-9.3" y="-5.5" transform="matrix(1.6159 0 0 1.6088 6551.6216 52.7521)" style="overflow:visible;"/>
					</g>
				</g>
				<text transform="matrix(1.6229 0 0 1.6158 6569.7944 59.1812)" class="st3 st5">[</text>
				<text transform="matrix(1.6229 0 0 1.6158 6576.9746 59.1812)" class="st3 st5">Group</text>
				<text transform="matrix(1.6229 0 0 1.6158 6648.832 59.1812)" class="st3 st5">!]!</text>
			</g>
			<g id="FIELD::GardenPlan::height">
				<polygon class="st2" points="6189.2,128.4 6189.2,78.2 6680.1,78.2 6680.1,128.4 				"/>
				<text transform="matrix(1.6229 0 0 1.6158 6198.9126 109.3795)" class="st3 st5">height</text>
				<text transform="matrix(1.6229 0 0 1.6158 6641.6411 110.9859)" class="st3 st5">Int</text>
			</g>
			<g id="FIELD::GardenPlan::id">
				<polygon class="st2" points="6189.2,178.6 6189.2,128.4 6680.1,128.4 6680.1,178.6 				"/>
				<text transform="matrix(1.6229 0 0 1.6158 6198.9126 159.5747)" class="st3 st5">id</text>
				<text transform="matrix(1.6229 0 0 1.6158 6637.3379 159.5747)" class="st3 st5">ID</text>
				<text transform="matrix(1.6229 0 0 1.6158 6663.1978 159.5747)" class="st3 st5">!</text>
			</g>
			<g id="FIELD::GardenPlan::landmarks">
				<polygon class="st2" points="6189.2,228.8 6189.2,178.6 6680.1,178.6 6680.1,228.8 				"/>
				<text transform="matrix(1.6229 0 0 1.6158 6198.9126 209.7652)" class="st3 st5">landmarks</text>
				<g>
					<defs>
						<rect id="SVGID_9_" x="6497.5" y="193" width="22" height="21.9"/>
					</defs>
					<clipPath id="SVGID_10_">
						<use xlink:href="#SVGID_9_"  style="overflow:visible;"/>
					</clipPath>
					<g transform="matrix(1 0 0 1 0 0)" style="clip-path:url(#SVGID_10_);">
						
							<use xlink:href="#RelayIcon"  width="18.5" height="10.9" x="-9.3" y="-5.5" transform="matrix(1.6159 0 0 1.6088 6508.5093 203.9836)" style="overflow:visible;"/>
					</g>
				</g>
				<text transform="matrix(1.6229 0 0 1.6158 6526.6899 209.7652)" class="st3 st5">[</text>
				<text transform="matrix(1.6229 0 0 1.6158 6533.8618 209.7652)" class="st3 st5">Landmark</text>
				<text transform="matrix(1.6229 0 0 1.6158 6648.832 209.7652)" class="st3 st5">!]!</text>
			</g>
			<g id="FIELD::GardenPlan::plantingLocations">
				<polygon class="st2" points="6189.2,279 6189.2,228.8 6680.1,228.8 6680.1,279 				"/>
				<text transform="matrix(1.6229 0 0 1.6158 6198.9126 259.9683)" class="st3 st5">plantingLocations</text>
				<g>
					<defs>
						<rect id="SVGID_11_" x="6421.3" y="242.9" width="22" height="21.9"/>
					</defs>
					<clipPath id="SVGID_12_">
						<use xlink:href="#SVGID_11_"  style="overflow:visible;"/>
					</clipPath>
					<g transform="matrix(1 0 0 1 0 -1.525879e-05)" style="clip-path:url(#SVGID_12_);">
						
							<use xlink:href="#RelayIcon"  width="18.5" height="10.9" x="-9.3" y="-5.5" transform="matrix(1.6159 0 0 1.6088 6432.3027 253.8578)" style="overflow:visible;"/>
					</g>
				</g>
				<text transform="matrix(1.6229 0 0 1.6158 6450.4609 259.9683)" class="st3 st5">[</text>
				<text transform="matrix(1.6229 0 0 1.6158 6457.6533 259.9683)" class="st3 st5">PlantingLocation</text>
				<text transform="matrix(1.6229 0 0 1.6158 6648.832 259.9683)" class="st3 st5">!]!</text>
			</g>
			<g id="FIELD::GardenPlan::redoStackSize">
				<polygon class="st2" points="6189.2,329.2 6189.2,279 6680.1,279 6680.1,329.2 				"/>
				<text transform="matrix(1.6229 0 0 1.6158 6198.9126 310.1619)" class="st3 st5">redoStackSize</text>
				<text transform="matrix(1.6229 0 0 1.6158 6634.4487 310.1619)" class="st3 st5">Int</text>
				<text transform="matrix(1.6229 0 0 1.6158 6663.1978 310.1619)" class="st3 st5">!</text>
			</g>
			<g id="FIELD::GardenPlan::undoStackSize">
				<polygon class="st2" points="6189.2,379.3 6189.2,329.2 6680.1,329.2 6680.1,379.3 				"/>
				<text transform="matrix(1.6229 0 0 1.6158 6198.9126 360.3587)" class="st3 st5">undoStackSize</text>
				<text transform="matrix(1.6229 0 0 1.6158 6634.4487 360.3587)" class="st3 st5">Int</text>
				<text transform="matrix(1.6229 0 0 1.6158 6663.1978 360.3587)" class="st3 st5">!</text>
			</g>
			<g id="FIELD::GardenPlan::width">
				<polygon class="st2" points="6189.2,429.5 6189.2,379.3 6680.1,379.3 6680.1,429.5 				"/>
				<text transform="matrix(1.6229 0 0 1.6158 6198.9126 410.5507)" class="st3 st5">width</text>
				<text transform="matrix(1.6229 0 0 1.6158 6641.6411 412.1666)" class="st3 st5">Int</text>
			</g>
		</g>
		<g>
			<path class="st2" d="M2696.9-346.2c188.9,0,237.6,10.1,421.8,51.5c53.2,11.9,64.4,22.1,116.3,38.6
				C3633-129.7,3723.2-58.8,4133.9,17c98,18.1,1436.9,105.7,2025.2,143.7"/>
			<polygon class="st6" points="6159.3,155.2 6175,161.8 6158.6,166.4 			"/>
			<text transform="matrix(1.6229 0 0 1.6158 4323.543 8.986)" class="st7 st8">Garden:gardenPlan</text>
			<path class="st2" d="M2696.9-346.2c188.9,0,237.6,10.1,421.8,51.5c53.2,11.9,64.4,22.1,116.3,38.6
				C3633-129.7,3723.2-58.8,4133.9,17c98,18.1,1436.9,105.7,2025.2,143.7"/>
		</g>
		<g>
			<path class="st2" d="M1818.2-296.4c136.8,0,289.7,0,413.7,0"/>
			<polygon class="st6" points="2231.4,-302 2247.6,-296.4 2231.4,-290.7 			"/>
			<text transform="matrix(1.6229 0 0 1.6158 1945.646 -303.1253)" class="st7 st8">User:primaryGarden</text>
			<path class="st2" d="M1818.2-296.4c136.8,0,289.7,0,413.7,0"/>
		</g>
		<g id="TYPE::GardenCrop">
			<g id="TYPE_TITLE::GardenCrop">
				<polygon class="st2" points="4146.8,-784.2 4146.8,-835 4674.9,-835 4674.9,-784.2 				"/>
				<text transform="matrix(1.6229 0 0 1.6158 4330.8228 -800.9035)" class="st3 st4">GardenCrop</text>
			</g>
			<g id="FIELD::GardenCrop::color">
				<polygon class="st2" points="4146.8,-734 4146.8,-784.2 4674.9,-784.2 4674.9,-734 				"/>
				<text transform="matrix(1.6229 0 0 1.6158 4156.4839 -752.9601)" class="st3 st5">color</text>
				<text transform="matrix(1.6229 0 0 1.6158 4597.6777 -751.3529)" class="st3 st5">String</text>
			</g>
			<g id="FIELD::GardenCrop::cropDefinition">
				<polygon class="st2" points="4146.8,-683.8 4146.8,-734 4674.9,-734 4674.9,-683.8 				"/>
				<text transform="matrix(1.6229 0 0 1.6158 4156.4839 -702.7617)" class="st3 st5">cropDefinition</text>
				<text transform="matrix(1.6229 0 0 1.6158 4494.2104 -702.7617)" class="st3 st5">CropDefinition</text>
				<text transform="matrix(1.6229 0 0 1.6158 4658.0439 -702.7617)" class="st3 st5">!</text>
			</g>
			<g id="FIELD::GardenCrop::cropSchedule">
				<polygon class="st2" points="4146.8,-633.6 4146.8,-683.8 4674.9,-683.8 4674.9,-633.6 				"/>
				<text transform="matrix(1.6229 0 0 1.6158 4156.4839 -652.5673)" class="st3 st5">cropSchedule</text>
				<text transform="matrix(1.6229 0 0 1.6158 4494.1924 -652.5673)" class="st3 st5">CropSchedule</text>
				<text transform="matrix(1.6229 0 0 1.6158 4658.0439 -652.5673)" class="st3 st5">!</text>
			</g>
			<g id="FIELD::GardenCrop::garden">
				<polygon class="st2" points="4146.8,-583.4 4146.8,-633.6 4674.9,-633.6 4674.9,-583.4 				"/>
				<text transform="matrix(1.6229 0 0 1.6158 4156.4839 -602.3753)" class="st3 st5">garden</text>
				<text transform="matrix(1.6229 0 0 1.6158 4571.8008 -602.3753)" class="st3 st5">Garden</text>
				<text transform="matrix(1.6229 0 0 1.6158 4658.0439 -602.3753)" class="st3 st5">!</text>
			</g>
			<g id="FIELD::GardenCrop::gardenId">
				<polygon class="st2" points="4146.8,-533.2 4146.8,-583.4 4674.9,-583.4 4674.9,-533.2 				"/>
				<text transform="matrix(1.6229 0 0 1.6158 4156.4839 -552.1761)" class="st3 st5">gardenId</text>
				<text transform="matrix(1.6229 0 0 1.6158 4629.2988 -552.1761)" class="st3 st5">Int</text>
				<text transform="matrix(1.6229 0 0 1.6158 4658.0439 -552.1761)" class="st3 st5">!</text>
			</g>
			<g id="FIELD::GardenCrop::groundOccupationEnd">
				<polygon class="st2" points="4146.8,-483 4146.8,-533.2 4674.9,-533.2 4674.9,-483 				"/>
				<text transform="matrix(1.6229 0 0 1.6158 4156.4839 -501.9802)" class="st3 st5">groundOccupationEnd</text>
				<text transform="matrix(1.6229 0 0 1.6158 4508.5566 -500.3706)" class="st3 st5">ISO8601Date</text>
			</g>
			<g id="FIELD::GardenCrop::groundOccupationStart">
				<polygon class="st2" points="4146.8,-432.8 4146.8,-483 4674.9,-483 4674.9,-432.8 				"/>
				<text transform="matrix(1.6229 0 0 1.6158 4156.4839 -451.7826)" class="st3 st5">groundOccupationStart</text>
				<text transform="matrix(1.6229 0 0 1.6158 4508.5566 -450.1715)" class="st3 st5">ISO8601Date</text>
			</g>
			<g id="FIELD::GardenCrop::harvestingDate">
				<polygon class="st2" points="4146.8,-382.6 4146.8,-432.8 4674.9,-432.8 4674.9,-382.6 				"/>
				<text transform="matrix(1.6229 0 0 1.6158 4156.4839 -401.589)" class="st3 st5">harvestingDate</text>
				<text transform="matrix(1.6229 0 0 1.6158 4590.4976 -401.589)" class="st3 st5">String</text>
				<text transform="matrix(1.6229 0 0 1.6158 4658.0439 -401.589)" class="st3 st5">!</text>
			</g>
			<g id="FIELD::GardenCrop::id">
				<polygon class="st2" points="4146.8,-332.4 4146.8,-382.6 4674.9,-382.6 4674.9,-332.4 				"/>
				<text transform="matrix(1.6229 0 0 1.6158 4156.4839 -351.3906)" class="st3 st5">id</text>
				<text transform="matrix(1.6229 0 0 1.6158 4632.1904 -351.3906)" class="st3 st5">ID</text>
				<text transform="matrix(1.6229 0 0 1.6158 4658.0439 -351.3906)" class="st3 st5">!</text>
			</g>
			<g id="FIELD::GardenCrop::planting">
				<polygon class="st2" points="4146.8,-282.2 4146.8,-332.4 4674.9,-332.4 4674.9,-282.2 				"/>
				<text transform="matrix(1.6229 0 0 1.6158 4156.4839 -301.197)" class="st3 st5">planting</text>
				<text transform="matrix(1.6229 0 0 1.6158 4564.6118 -301.197)" class="st3 st5">Planting</text>
				<text transform="matrix(1.6229 0 0 1.6158 4658.0439 -301.197)" class="st3 st5">!</text>
			</g>
			<g id="FIELD::GardenCrop::plantingFormations">
				<polygon class="st2" points="4146.8,-232 4146.8,-282.2 4674.9,-282.2 4674.9,-232 				"/>
				<text transform="matrix(1.6229 0 0 1.6158 4156.4839 -251.0002)" class="st3 st5">plantingFormations</text>
				<g>
					<defs>
						<rect id="SVGID_13_" x="4397.5" y="-267.1" width="22" height="21.9"/>
					</defs>
					<clipPath id="SVGID_14_">
						<use xlink:href="#SVGID_13_"  style="overflow:visible;"/>
					</clipPath>
					<g transform="matrix(1 0 0 1 0 0)" style="clip-path:url(#SVGID_14_);">
						
							<use xlink:href="#RelayIcon"  width="18.5" height="10.9" x="-9.3" y="-5.5" transform="matrix(1.6159 0 0 1.6088 4408.5034 -256.1461)" style="overflow:visible;"/>
					</g>
				</g>
				<text transform="matrix(1.6229 0 0 1.6158 4426.6768 -251.0002)" class="st3 st5">[</text>
				<text transform="matrix(1.6229 0 0 1.6158 4433.854 -251.0002)" class="st3 st5">PlantingFormation</text>
				<text transform="matrix(1.6229 0 0 1.6158 4643.6787 -251.0002)" class="st3 st5">!]!</text>
			</g>
			<g id="FIELD::GardenCrop::plantingLocations">
				<polygon class="st2" points="4146.8,-181.8 4146.8,-232 4674.9,-232 4674.9,-181.8 				"/>
				<text transform="matrix(1.6229 0 0 1.6158 4156.4839 -200.8066)" class="st3 st5">plantingLocations</text>
				<g>
					<defs>
						<rect id="SVGID_15_" x="4416.2" y="-217.2" width="22" height="21.9"/>
					</defs>
					<clipPath id="SVGID_16_">
						<use xlink:href="#SVGID_15_"  style="overflow:visible;"/>
					</clipPath>
					<g transform="matrix(1 0 0 1 0 -1.525879e-05)" style="clip-path:url(#SVGID_16_);">
						
							<use xlink:href="#RelayIcon"  width="18.5" height="10.9" x="-9.3" y="-5.5" transform="matrix(1.6159 0 0 1.6088 4427.1514 -206.2719)" style="overflow:visible;"/>
					</g>
				</g>
				<text transform="matrix(1.6229 0 0 1.6158 4445.3125 -200.8066)" class="st3 st5">[</text>
				<text transform="matrix(1.6229 0 0 1.6158 4452.4844 -200.8066)" class="st3 st5">PlantingLocation</text>
				<text transform="matrix(1.6229 0 0 1.6158 4643.6787 -200.8066)" class="st3 st5">!]!</text>
			</g>
			<g id="FIELD::GardenCrop::seedingDate">
				<polygon class="st2" points="4146.8,-131.6 4146.8,-181.8 4674.9,-181.8 4674.9,-131.6 				"/>
				<text transform="matrix(1.6229 0 0 1.6158 4156.4839 -150.613)" class="st3 st5">seedingDate</text>
				<text transform="matrix(1.6229 0 0 1.6158 4590.4976 -150.613)" class="st3 st5">String</text>
				<text transform="matrix(1.6229 0 0 1.6158 4658.0439 -150.613)" class="st3 st5">!</text>
			</g>
			<g id="FIELD::GardenCrop::tasks">
				<polygon class="st2" points="4146.8,-81.4 4146.8,-131.6 4674.9,-131.6 4674.9,-81.4 				"/>
				<text transform="matrix(1.6229 0 0 1.6158 4156.4839 -100.4194)" class="st3 st5">tasks</text>
				<g>
					<defs>
						<rect id="SVGID_17_" x="4551.3" y="-117.5" width="22" height="21.9"/>
					</defs>
					<clipPath id="SVGID_18_">
						<use xlink:href="#SVGID_17_"  style="overflow:visible;"/>
					</clipPath>
					<g transform="matrix(1 0 0 1 0 7.629395e-06)" style="clip-path:url(#SVGID_18_);">
						
							<use xlink:href="#RelayIcon"  width="18.5" height="10.9" x="-9.3" y="-5.5" transform="matrix(1.6159 0 0 1.6088 4562.3057 -106.5235)" style="overflow:visible;"/>
					</g>
				</g>
				<text transform="matrix(1.6229 0 0 1.6158 4580.4678 -100.4194)" class="st3 st5">[</text>
				<text transform="matrix(1.6229 0 0 1.6158 4587.6421 -100.4194)" class="st3 st5">Task</text>
				<text transform="matrix(1.6229 0 0 1.6158 4643.6787 -100.4194)" class="st3 st5">!]!</text>
			</g>
			<g id="FIELD::GardenCrop::title">
				<polygon class="st2" points="4146.8,-31.2 4146.8,-81.4 4674.9,-81.4 4674.9,-31.2 				"/>
				<text transform="matrix(1.6229 0 0 1.6158 4156.4839 -50.2163)" class="st3 st5">title</text>
				<text transform="matrix(1.6229 0 0 1.6158 4590.4976 -50.2163)" class="st3 st5">String</text>
				<text transform="matrix(1.6229 0 0 1.6158 4658.0439 -50.2163)" class="st3 st5">!</text>
			</g>
		</g>
		<g>
			<path class="st2" d="M3640.3-658.4c63,0,68.1,40.7,127.2,62.4c112.1,41.2,238.9,75.8,350.1,102.3"/>
			<polygon class="st6" points="4118.5,-498.8 4132.9,-489.6 4115.9,-487.8 			"/>
			<text transform="matrix(1.6229 0 0 1.6158 3767.4666 -602.3753)" class="st7 st8">CropSchedule:gardenCrops</text>
			<path class="st2" d="M3640.3-658.4c63,0,68.1,40.7,127.2,62.4c112.1,41.2,238.9,75.8,350.1,102.3"/>
		</g>
		<g>
			<path class="st2" d="M6187.4,2.9c-490.1,0-104.2-715.6-525.3-965.3c-928.7-550.7-1535.8-451.4-2427,157.7
				c-98.5,67.3-29.8,159.3-116.3,241.3c-4,3.8-215.8,92.1-394.3,166.1"/>
			<polygon class="st6" points="2727.1,-391.6 2710,-390.7 2722.7,-402 			"/>
			<text transform="matrix(1.6229 0 0 1.6158 4323.543 -1329.5674)" class="st7 st8">GardenPlan:garden</text>
			<path class="st2" d="M6187.4,2.9c-490.1,0-104.2-715.6-525.3-965.3c-928.7-550.7-1535.8-451.4-2427,157.7
				c-98.5,67.3-29.8,159.3-116.3,241.3c-4,3.8-215.8,92.1-394.3,166.1"/>
		</g>
		<g id="TYPE::Group">
			<g id="TYPE_TITLE::Group">
				<polygon class="st2" points="8246.8,204.6 8246.8,153.8 8737.6,153.8 8737.6,204.6 				"/>
				<text transform="matrix(1.6229 0 0 1.6158 8451.8066 187.8867)" class="st3 st4">Group</text>
			</g>
			<g id="FIELD::Group::children">
				<polygon class="st2" points="8246.8,254.8 8246.8,204.6 8737.6,204.6 8737.6,254.8 				"/>
				<text transform="matrix(1.6229 0 0 1.6158 8256.4922 235.8317)" class="st3 st5">children</text>
				<g>
					<defs>
						<rect id="SVGID_19_" x="8576.6" y="218.8" width="22" height="21.9"/>
					</defs>
					<clipPath id="SVGID_20_">
						<use xlink:href="#SVGID_19_"  style="overflow:visible;"/>
					</clipPath>
					<g transform="matrix(1 0 0 1 0 -1.525879e-05)" style="clip-path:url(#SVGID_20_);">
						
							<use xlink:href="#RelayIcon"  width="18.5" height="10.9" x="-9.3" y="-5.5" transform="matrix(1.6159 0 0 1.6088 8587.6211 229.7251)" style="overflow:visible;"/>
					</g>
				</g>
				<text transform="matrix(1.6229 0 0 1.6158 8605.7852 235.8317)" class="st3 st5">[</text>
				<text transform="matrix(1.6229 0 0 1.6158 8612.9746 235.8317)" class="st3 st5">Layered</text>
				<text transform="matrix(1.6229 0 0 1.6158 8706.4141 235.8317)" class="st3 st5">!]!</text>
			</g>
			<g id="FIELD::Group::gardenPlan">
				<polygon class="st2" points="8246.8,305 8246.8,254.8 8737.6,254.8 8737.6,305 				"/>
				<text transform="matrix(1.6229 0 0 1.6158 8256.4922 286.0284)" class="st3 st5">gardenPlan</text>
				<text transform="matrix(1.6229 0 0 1.6158 8582.791 286.0284)" class="st3 st5">GardenPlan</text>
				<text transform="matrix(1.6229 0 0 1.6158 8720.7764 286.0284)" class="st3 st5">!</text>
			</g>
			<g id="FIELD::Group::groupId">
				<polygon class="st2" points="8246.8,355.2 8246.8,305 8737.6,305 8737.6,355.2 				"/>
				<text transform="matrix(1.6229 0 0 1.6158 8256.4922 336.2284)" class="st3 st5">groupId</text>
				<text transform="matrix(1.6229 0 0 1.6158 8660.418 337.8379)" class="st3 st5">String</text>
			</g>
			<g id="FIELD::Group::hidden">
				<polygon class="st2" points="8246.8,405.4 8246.8,355.2 8737.6,355.2 8737.6,405.4 				"/>
				<text transform="matrix(1.6229 0 0 1.6158 8256.4922 386.4204)" class="st3 st5">hidden</text>
				<text transform="matrix(1.6229 0 0 1.6158 8625.8857 386.4204)" class="st3 st5">Boolean</text>
				<text transform="matrix(1.6229 0 0 1.6158 8720.7764 386.4204)" class="st3 st5">!</text>
			</g>
			<g id="FIELD::Group::id">
				<polygon class="st2" points="8246.8,455.6 8246.8,405.4 8737.6,405.4 8737.6,455.6 				"/>
				<text transform="matrix(1.6229 0 0 1.6158 8256.4922 436.614)" class="st3 st5">id</text>
				<text transform="matrix(1.6229 0 0 1.6158 8694.9219 436.614)" class="st3 st5">ID</text>
				<text transform="matrix(1.6229 0 0 1.6158 8720.7764 436.614)" class="st3 st5">!</text>
			</g>
			<g id="FIELD::Group::index">
				<polygon class="st2" points="8246.8,505.8 8246.8,455.6 8737.6,455.6 8737.6,505.8 				"/>
				<text transform="matrix(1.6229 0 0 1.6158 8256.4922 486.8108)" class="st3 st5">index</text>
				<text transform="matrix(1.6229 0 0 1.6158 8699.2197 488.4251)" class="st3 st5">Int</text>
			</g>
			<g id="FIELD::Group::landmarks">
				<polygon class="st2" points="8246.8,556 8246.8,505.8 8737.6,505.8 8737.6,556 				"/>
				<text transform="matrix(1.6229 0 0 1.6158 8256.4922 537.0076)" class="st3 st5">landmarks</text>
				<g>
					<defs>
						<rect id="SVGID_21_" x="8555.1" y="519.6" width="22" height="21.9"/>
					</defs>
					<clipPath id="SVGID_22_">
						<use xlink:href="#SVGID_21_"  style="overflow:visible;"/>
					</clipPath>
					<g transform="matrix(1 0 0 1 0 0)" style="clip-path:url(#SVGID_22_);">
						
							<use xlink:href="#RelayIcon"  width="18.5" height="10.9" x="-9.3" y="-5.5" transform="matrix(1.6159 0 0 1.6088 8566.0811 530.5791)" style="overflow:visible;"/>
					</g>
				</g>
				<text transform="matrix(1.6229 0 0 1.6158 8584.2441 537.0076)" class="st3 st5">[</text>
				<text transform="matrix(1.6229 0 0 1.6158 8591.4385 537.0076)" class="st3 st5">Landmark</text>
				<text transform="matrix(1.6229 0 0 1.6158 8706.4141 537.0076)" class="st3 st5">!]!</text>
			</g>
			<g id="FIELD::Group::name">
				<polygon class="st2" points="8246.8,606.2 8246.8,556 8737.6,556 8737.6,606.2 				"/>
				<text transform="matrix(1.6229 0 0 1.6158 8256.4922 587.2091)" class="st3 st5">name</text>
				<text transform="matrix(1.6229 0 0 1.6158 8653.2295 587.2091)" class="st3 st5">String</text>
				<text transform="matrix(1.6229 0 0 1.6158 8720.7764 587.2091)" class="st3 st5">!</text>
			</g>
			<g id="FIELD::Group::plantingLocations">
				<polygon class="st2" points="8246.8,656.4 8246.8,606.2 8737.6,606.2 8737.6,656.4 				"/>
				<text transform="matrix(1.6229 0 0 1.6158 8256.4922 637.4027)" class="st3 st5">plantingLocations</text>
				<g>
					<defs>
						<rect id="SVGID_23_" x="8478.9" y="621" width="22" height="21.9"/>
					</defs>
					<clipPath id="SVGID_24_">
						<use xlink:href="#SVGID_23_"  style="overflow:visible;"/>
					</clipPath>
					<g transform="matrix(1 0 0 1 0 0)" style="clip-path:url(#SVGID_24_);">
						
							<use xlink:href="#RelayIcon"  width="18.5" height="10.9" x="-9.3" y="-5.5" transform="matrix(1.6159 0 0 1.6088 8489.874 631.9363)" style="overflow:visible;"/>
					</g>
				</g>
				<text transform="matrix(1.6229 0 0 1.6158 8508.0381 637.4027)" class="st3 st5">[</text>
				<text transform="matrix(1.6229 0 0 1.6158 8515.2305 637.4027)" class="st3 st5">PlantingLocation</text>
				<text transform="matrix(1.6229 0 0 1.6158 8706.4141 637.4027)" class="st3 st5">!]!</text>
			</g>
		</g>
		<g>
			<path class="st2" d="M6681.9,52.8c481.3,0,603.2,38.3,1074.2,136.8c154.9,32.4,324.5,81.2,461.7,124.3"/>
			<polygon class="st6" points="8219.1,308.8 8232.8,319 8215.7,319.5 			"/>
			<text transform="matrix(1.6229 0 0 1.6158 7391.7905 73.3371)" class="st7 st8">GardenPlan:groups</text>
			<path class="st2" d="M6681.9,52.8c481.3,0,603.2,38.3,1074.2,136.8c154.9,32.4,324.5,81.2,461.7,124.3"/>
		</g>
		<g id="TYPE::Landmark">
			<g id="TYPE_TITLE::Landmark">
				<polygon class="st2" points="9705.8,214 9705.8,163.1 10088.7,163.1 10088.7,214 				"/>
				<text transform="matrix(1.6229 0 0 1.6158 9832.5518 197.2203)" class="st3 st4">Landmark</text>
			</g>
			<g id="FIELD::Landmark::fillColor">
				<polygon class="st2" points="9705.8,264.2 9705.8,214 10088.7,214 10088.7,264.2 				"/>
				<text transform="matrix(1.6229 0 0 1.6158 9715.4463 245.1606)" class="st3 st5">fillColor</text>
				<text transform="matrix(1.6229 0 0 1.6158 10004.2969 245.1606)" class="st3 st5">String</text>
				<text transform="matrix(1.6229 0 0 1.6158 10071.8174 245.1606)" class="st3 st5">!</text>
			</g>
			<g id="FIELD::Landmark::gardenPlan">
				<polygon class="st2" points="9705.8,314.4 9705.8,264.2 10088.7,264.2 10088.7,314.4 				"/>
				<text transform="matrix(1.6229 0 0 1.6158 9715.4463 295.3621)" class="st3 st5">gardenPlan</text>
				<text transform="matrix(1.6229 0 0 1.6158 9933.8438 295.3621)" class="st3 st5">GardenPlan</text>
				<text transform="matrix(1.6229 0 0 1.6158 10071.8174 295.3621)" class="st3 st5">!</text>
			</g>
			<g id="FIELD::Landmark::groupId">
				<polygon class="st2" points="9705.8,364.5 9705.8,314.4 10088.7,314.4 10088.7,364.5 				"/>
				<text transform="matrix(1.6229 0 0 1.6158 9715.4463 345.5605)" class="st3 st5">groupId</text>
				<text transform="matrix(1.6229 0 0 1.6158 10011.4639 347.1669)" class="st3 st5">String</text>
			</g>
			<g id="FIELD::Landmark::hidden">
				<polygon class="st2" points="9705.8,414.7 9705.8,364.5 10088.7,364.5 10088.7,414.7 				"/>
				<text transform="matrix(1.6229 0 0 1.6158 9715.4463 395.7478)" class="st3 st5">hidden</text>
				<text transform="matrix(1.6229 0 0 1.6158 9976.9346 395.7478)" class="st3 st5">Boolean</text>
				<text transform="matrix(1.6229 0 0 1.6158 10071.8174 395.7478)" class="st3 st5">!</text>
			</g>
			<g id="FIELD::Landmark::iconName">
				<polygon class="st2" points="9705.8,464.9 9705.8,414.7 10088.7,414.7 10088.7,464.9 				"/>
				<text transform="matrix(1.6229 0 0 1.6158 9715.4463 445.9461)" class="st3 st5">iconName</text>
				<text transform="matrix(1.6229 0 0 1.6158 9846.209 447.5541)" class="st3 st5">LandmarkIconName</text>
			</g>
			<g id="FIELD::Landmark::id">
				<polygon class="st2" points="9705.8,515.1 9705.8,464.9 10088.7,464.9 10088.7,515.1 				"/>
				<text transform="matrix(1.6229 0 0 1.6158 9715.4463 496.1461)" class="st3 st5">id</text>
				<text transform="matrix(1.6229 0 0 1.6158 10045.9648 496.1461)" class="st3 st5">ID</text>
				<text transform="matrix(1.6229 0 0 1.6158 10071.8174 496.1461)" class="st3 st5">!</text>
			</g>
			<g id="FIELD::Landmark::index">
				<polygon class="st2" points="9705.8,565.3 9705.8,515.1 10088.7,515.1 10088.7,565.3 				"/>
				<text transform="matrix(1.6229 0 0 1.6158 9715.4463 546.3365)" class="st3 st5">index</text>
				<text transform="matrix(1.6229 0 0 1.6158 10050.2627 547.954)" class="st3 st5">Int</text>
			</g>
			<g id="FIELD::Landmark::name">
				<polygon class="st2" points="9705.8,615.5 9705.8,565.3 10088.7,565.3 10088.7,615.5 				"/>
				<text transform="matrix(1.6229 0 0 1.6158 9715.4463 596.5333)" class="st3 st5">name</text>
				<text transform="matrix(1.6229 0 0 1.6158 10004.2969 596.5333)" class="st3 st5">String</text>
				<text transform="matrix(1.6229 0 0 1.6158 10071.8174 596.5333)" class="st3 st5">!</text>
			</g>
			<g id="FIELD::Landmark::shape">
				<polygon class="st2" points="9705.8,665.7 9705.8,615.5 10088.7,615.5 10088.7,665.7 				"/>
				<text transform="matrix(1.6229 0 0 1.6158 9715.4463 646.7349)" class="st3 st5">shape</text>
				<text transform="matrix(1.6229 0 0 1.6158 9997.0693 646.7349)" class="st3 st5">Shape</text>
				<text transform="matrix(1.6229 0 0 1.6158 10071.8174 646.7349)" class="st3 st5">!</text>
			</g>
			<g id="FIELD::Landmark::strokeColor">
				<polygon class="st2" points="9705.8,715.9 9705.8,665.7 10088.7,665.7 10088.7,715.9 				"/>
				<text transform="matrix(1.6229 0 0 1.6158 9715.4463 696.9332)" class="st3 st5">strokeColor</text>
				<text transform="matrix(1.6229 0 0 1.6158 10004.2969 696.9332)" class="st3 st5">String</text>
				<text transform="matrix(1.6229 0 0 1.6158 10071.8174 696.9332)" class="st3 st5">!</text>
			</g>
			<g id="FIELD::Landmark::strokeWidth">
				<polygon class="st2" points="9705.8,766.1 9705.8,715.9 10088.7,715.9 10088.7,766.1 				"/>
				<text transform="matrix(1.6229 0 0 1.6158 9715.4463 747.1221)" class="st3 st5">strokeWidth</text>
				<text transform="matrix(1.6229 0 0 1.6158 10043.0752 747.1221)" class="st3 st5">Int</text>
				<text transform="matrix(1.6229 0 0 1.6158 10071.8174 747.1221)" class="st3 st5">!</text>
			</g>
		</g>
		<g>
			<path class="st2" d="M6681.9,204c236.9,0,285.4-84.6,520.3-115.8c248.5-33.1,2023.1-120.5,2256.4-29
				c81.8,32.1,157.5,87.5,222,147.2"/>
			<polygon class="st6" points="9683.8,201.6 9691.6,216.7 9676,209.8 			"/>
			<text transform="matrix(1.6229 0 0 1.6158 8388.5566 12.1987)" class="st7 st8">GardenPlan:landmarks</text>
			<path class="st2" d="M6681.9,204c236.9,0,285.4-84.6,520.3-115.8c248.5-33.1,2023.1-120.5,2256.4-29
				c81.8,32.1,157.5,87.5,222,147.2"/>
		</g>
		<g id="TYPE::PlantingLocation">
			<g id="TYPE_TITLE::PlantingLocation">
				<polygon class="st2" points="7215.1,338.8 7215.1,288 7743.2,288 7743.2,338.8 				"/>
				<text transform="matrix(1.6229 0 0 1.6158 7371.5845 322.0677)" class="st3 st4">PlantingLocation</text>
			</g>
			<g id="FIELD::PlantingLocation::fillColor">
				<polygon class="st2" points="7215.1,389 7215.1,338.8 7743.2,338.8 7743.2,389 				"/>
				<text transform="matrix(1.6229 0 0 1.6158 7224.7607 370.0127)" class="st3 st5">fillColor</text>
				<text transform="matrix(1.6229 0 0 1.6158 7658.7671 370.0127)" class="st3 st5">String</text>
				<text transform="matrix(1.6229 0 0 1.6158 7726.3086 370.0127)" class="st3 st5">!</text>
			</g>
			<g id="FIELD::PlantingLocation::gardenPlan">
				<polygon class="st2" points="7215.1,439.2 7215.1,389 7743.2,389 7743.2,439.2 				"/>
				<text transform="matrix(1.6229 0 0 1.6158 7224.7607 420.2079)" class="st3 st5">gardenPlan</text>
				<text transform="matrix(1.6229 0 0 1.6158 7588.3247 420.2079)" class="st3 st5">GardenPlan</text>
				<text transform="matrix(1.6229 0 0 1.6158 7726.3086 420.2079)" class="st3 st5">!</text>
			</g>
			<g id="FIELD::PlantingLocation::group">
				<polygon class="st2" points="7215.1,489.4 7215.1,439.2 7743.2,439.2 7743.2,489.4 				"/>
				<text transform="matrix(1.6229 0 0 1.6158 7224.7607 470.3999)" class="st3 st5">group</text>
				<text transform="matrix(1.6229 0 0 1.6158 7661.6294 472.0126)" class="st3 st5">Group</text>
			</g>
			<g id="FIELD::PlantingLocation::groupId">
				<polygon class="st2" points="7215.1,539.6 7215.1,489.4 7743.2,489.4 7743.2,539.6 				"/>
				<text transform="matrix(1.6229 0 0 1.6158 7224.7607 520.5967)" class="st3 st5">groupId</text>
				<text transform="matrix(1.6229 0 0 1.6158 7665.9575 522.2094)" class="st3 st5">String</text>
			</g>
			<g id="FIELD::PlantingLocation::hidden">
				<polygon class="st2" points="7215.1,589.8 7215.1,539.6 7743.2,539.6 7743.2,589.8 				"/>
				<text transform="matrix(1.6229 0 0 1.6158 7224.7607 570.7966)" class="st3 st5">hidden</text>
				<text transform="matrix(1.6229 0 0 1.6158 7631.4272 570.7966)" class="st3 st5">Boolean</text>
				<text transform="matrix(1.6229 0 0 1.6158 7726.3086 570.7966)" class="st3 st5">!</text>
			</g>
			<g id="FIELD::PlantingLocation::id">
				<polygon class="st2" points="7215.1,640 7215.1,589.8 7743.2,589.8 7743.2,640 				"/>
				<text transform="matrix(1.6229 0 0 1.6158 7224.7607 620.9918)" class="st3 st5">id</text>
				<text transform="matrix(1.6229 0 0 1.6158 7700.457 620.9918)" class="st3 st5">ID</text>
				<text transform="matrix(1.6229 0 0 1.6158 7726.3086 620.9918)" class="st3 st5">!</text>
			</g>
			<g id="FIELD::PlantingLocation::index">
				<polygon class="st2" points="7215.1,690.2 7215.1,640 7743.2,640 7743.2,690.2 				"/>
				<text transform="matrix(1.6229 0 0 1.6158 7224.7607 671.1855)" class="st3 st5">index</text>
				<text transform="matrix(1.6229 0 0 1.6158 7704.7363 672.7966)" class="st3 st5">Int</text>
			</g>
			<g id="FIELD::PlantingLocation::name">
				<polygon class="st2" points="7215.1,740.4 7215.1,690.2 7743.2,690.2 7743.2,740.4 				"/>
				<text transform="matrix(1.6229 0 0 1.6158 7224.7607 721.3854)" class="st3 st5">name</text>
				<text transform="matrix(1.6229 0 0 1.6158 7658.7671 721.3854)" class="st3 st5">String</text>
				<text transform="matrix(1.6229 0 0 1.6158 7726.3086 721.3854)" class="st3 st5">!</text>
			</g>
			<g id="FIELD::PlantingLocation::plantingFormations">
				<polygon class="st2" points="7215.1,790.6 7215.1,740.4 7743.2,740.4 7743.2,790.6 				"/>
				<text transform="matrix(1.6229 0 0 1.6158 7224.7607 771.5806)" class="st3 st5">plantingFormations</text>
				<g>
					<defs>
						<rect id="SVGID_25_" x="7465.8" y="754.5" width="22" height="21.9"/>
					</defs>
					<clipPath id="SVGID_26_">
						<use xlink:href="#SVGID_25_"  style="overflow:visible;"/>
					</clipPath>
					<g transform="matrix(1 0 0 1 0 0)" style="clip-path:url(#SVGID_26_);">
						
							<use xlink:href="#RelayIcon"  width="18.5" height="10.9" x="-9.3" y="-5.5" transform="matrix(1.6159 0 0 1.6088 7476.7793 765.4705)" style="overflow:visible;"/>
					</g>
				</g>
				<text transform="matrix(1.6229 0 0 1.6158 7494.9424 771.5806)" class="st3 st5">[</text>
				<text transform="matrix(1.6229 0 0 1.6158 7502.1143 771.5806)" class="st3 st5">PlantingFormation</text>
				<text transform="matrix(1.6229 0 0 1.6158 7711.9492 771.5806)" class="st3 st5">!]!</text>
			</g>
			<g id="FIELD::PlantingLocation::shape">
				<polygon class="st2" points="7215.1,840.8 7215.1,790.6 7743.2,790.6 7743.2,840.8 				"/>
				<text transform="matrix(1.6229 0 0 1.6158 7224.7607 821.7758)" class="st3 st5">shape</text>
				<text transform="matrix(1.6229 0 0 1.6158 7651.5459 821.7758)" class="st3 st5">Shape</text>
				<text transform="matrix(1.6229 0 0 1.6158 7726.3086 821.7758)" class="st3 st5">!</text>
			</g>
		</g>
		<g>
			<path class="st2" d="M6681.9,253.9c73.8,0,62.6,70.9,127.5,105.9c66.9,36.1,228.6,86,376.2,127.4"/>
			<polygon class="st6" points="7186.9,482.1 7200.9,491.9 7183.8,493 			"/>
			<text transform="matrix(1.6229 0 0 1.6158 6809.3491 351.6656)" class="st7 st8">GardenPlan:plantingLocations</text>
			<path class="st2" d="M6681.9,253.9c73.8,0,62.6,70.9,127.5,105.9c66.9,36.1,228.6,86,376.2,127.4"/>
		</g>
		<g>
			<path class="st2" d="M4145.9-608.5c-71.1,0-69.4,55.4-128.3,94.9c-158.1,106-182.9,170.5-366.4,221.7
				c-167.5,46.7-634.2,28.9-925.3,12.1"/>
			<polygon class="st6" points="2725.7,-274.3 2709.9,-280.8 2726.3,-285.5 			"/>
			<text transform="matrix(1.6229 0 0 1.6158 3353.282 -299.9078)" class="st7 st8">GardenCrop:garden</text>
			<path class="st2" d="M4145.9-608.5c-71.1,0-69.4,55.4-128.3,94.9c-158.1,106-182.9,170.5-366.4,221.7
				c-167.5,46.7-634.2,28.9-925.3,12.1"/>
		</g>
		<g>
			<path class="st2" d="M4145.9-658.4c-159.6,0-339.7,0-477.4,0"/>
			<polygon class="st6" points="3668.8,-652.7 3652.7,-658.4 3668.8,-664 			"/>
			<text transform="matrix(1.6229 0 0 1.6158 3771.8801 -665.1161)" class="st7 st8">GardenCrop:cropSchedule</text>
			<path class="st2" d="M4145.9-658.4c-159.6,0-339.7,0-477.4,0"/>
		</g>
		<g>
			<path class="st2" d="M4675.9-206.3c287.9,0-27.3,391.1,128.3,632.3c122.2,189.4,196.6,228.1,411.7,297.6
				c679,219.6,1531,48.1,1970.1-70.5"/>
			<polygon class="st6" points="7184,647.3 7201.1,648.5 7187,658.2 			"/>
			<text transform="matrix(1.6229 0 0 1.6158 5778.4883 816.6237)" class="st7 st8">GardenCrop:plantingLocations</text>
			<path class="st2" d="M4675.9-206.3c287.9,0-27.3,391.1,128.3,632.3c122.2,189.4,196.6,228.1,411.7,297.6
				c679,219.6,1531,48.1,1970.1-70.5"/>
		</g>
		<g id="TYPE::CropDefinition">
			<g id="TYPE_TITLE::CropDefinition">
				<polygon class="st2" points="5243.2,-891 5243.2,-941.8 5634.8,-941.8 5634.8,-891 				"/>
				<text transform="matrix(1.6229 0 0 1.6158 5346.8442 -907.7313)" class="st3 st4">CropDefinition</text>
			</g>
			<g id="FIELD::CropDefinition::id">
				<polygon class="st2" points="5243.2,-840.8 5243.2,-891 5634.8,-891 5634.8,-840.8 				"/>
				<text transform="matrix(1.6229 0 0 1.6158 5252.8643 -859.787)" class="st3 st5">id</text>
				<text transform="matrix(1.6229 0 0 1.6158 5592.0918 -859.787)" class="st3 st5">ID</text>
				<text transform="matrix(1.6229 0 0 1.6158 5617.9453 -859.787)" class="st3 st5">!</text>
			</g>
			<g id="FIELD::CropDefinition::plantSpacingInches">
				<polygon class="st2" points="5243.2,-790.6 5243.2,-840.8 5634.8,-840.8 5634.8,-790.6 				"/>
				<text transform="matrix(1.6229 0 0 1.6158 5252.8643 -809.5934)" class="st3 st5">plantSpacingInches</text>
				<text transform="matrix(1.6229 0 0 1.6158 5560.4673 -809.5934)" class="st3 st5">Float</text>
				<text transform="matrix(1.6229 0 0 1.6158 5617.9453 -809.5934)" class="st3 st5">!</text>
			</g>
			<g id="FIELD::CropDefinition::plantingPattern">
				<polygon class="st2" points="5243.2,-740.4 5243.2,-790.6 5634.8,-790.6 5634.8,-740.4 				"/>
				<text transform="matrix(1.6229 0 0 1.6158 5252.8643 -759.3927)" class="st3 st5">plantingPattern</text>
				<text transform="matrix(1.6229 0 0 1.6158 5441.1475 -759.3927)" class="st3 st5">PlantingPattern</text>
				<text transform="matrix(1.6229 0 0 1.6158 5617.9453 -759.3927)" class="st3 st5">!</text>
			</g>
			<g id="FIELD::CropDefinition::rowSpacingInches">
				<polygon class="st2" points="5243.2,-690.2 5243.2,-740.4 5634.8,-740.4 5634.8,-690.2 				"/>
				<text transform="matrix(1.6229 0 0 1.6158 5252.8643 -709.1998)" class="st3 st5">rowSpacingInches</text>
				<text transform="matrix(1.6229 0 0 1.6158 5567.6431 -707.5911)" class="st3 st5">Float</text>
			</g>
		</g>
		<g>
			<path class="st2" d="M4675.9-708.2c181.9,0,385.9-30.5,537-59.1"/>
			<polygon class="st6" points="5211.5,-773.1 5228.4,-770.6 5213.6,-762.1 			"/>
			<text transform="matrix(1.6229 0 0 1.6158 4826.209 -751.9928)" class="st7 st8">GardenCrop:cropDefinition</text>
			<path class="st2" d="M4675.9-708.2c181.9,0,385.9-30.5,537-59.1"/>
		</g>
		<g id="TYPE::Planting">
			<g id="TYPE_TITLE::Planting">
				<polygon class="st2" points="5279.1,-598.2 5279.1,-649 5598.9,-649 5598.9,-598.2 				"/>
				<text transform="matrix(1.6229 0 0 1.6158 5386.4336 -614.9217)" class="st3 st4">Planting</text>
			</g>
			<g id="FIELD::Planting::gardenCrop">
				<polygon class="st2" points="5279.1,-548 5279.1,-598.2 5598.9,-598.2 5598.9,-548 				"/>
				<text transform="matrix(1.6229 0 0 1.6158 5288.8188 -566.9791)" class="st3 st5">gardenCrop</text>
				<text transform="matrix(1.6229 0 0 1.6158 5439.7251 -566.9791)" class="st3 st5">GardenCrop</text>
				<text transform="matrix(1.6229 0 0 1.6158 5581.9912 -566.9791)" class="st3 st5">!</text>
			</g>
			<g id="FIELD::Planting::id">
				<polygon class="st2" points="5279.1,-497.8 5279.1,-548 5598.9,-548 5598.9,-497.8 				"/>
				<text transform="matrix(1.6229 0 0 1.6158 5288.8188 -516.7831)" class="st3 st5">id</text>
				<text transform="matrix(1.6229 0 0 1.6158 5556.1348 -516.7831)" class="st3 st5">ID</text>
				<text transform="matrix(1.6229 0 0 1.6158 5581.9912 -516.7831)" class="st3 st5">!</text>
			</g>
			<g id="FIELD::Planting::linked">
				<polygon class="st2" points="5279.1,-447.6 5279.1,-497.8 5598.9,-497.8 5598.9,-447.6 				"/>
				<text transform="matrix(1.6229 0 0 1.6158 5288.8188 -466.5847)" class="st3 st5">linked</text>
				<text transform="matrix(1.6229 0 0 1.6158 5487.105 -466.5847)" class="st3 st5">Boolean</text>
				<text transform="matrix(1.6229 0 0 1.6158 5581.9912 -466.5847)" class="st3 st5">!</text>
			</g>
			<g id="FIELD::Planting::visible">
				<polygon class="st2" points="5279.1,-397.4 5279.1,-447.6 5598.9,-447.6 5598.9,-397.4 				"/>
				<text transform="matrix(1.6229 0 0 1.6158 5288.8188 -416.3887)" class="st3 st5">visible</text>
				<text transform="matrix(1.6229 0 0 1.6158 5487.105 -416.3887)" class="st3 st5">Boolean</text>
				<text transform="matrix(1.6229 0 0 1.6158 5581.9912 -416.3887)" class="st3 st5">!</text>
			</g>
		</g>
		<g>
			<path class="st2" d="M4675.9-307.6c201.9,0,422.8-71,574.5-131.5"/>
			<polygon class="st6" points="5247.9,-444.9 5265,-445.7 5252.2,-434.4 			"/>
			<text transform="matrix(1.6229 0 0 1.6158 4855.7246 -391.6115)" class="st7 st8">GardenCrop:planting</text>
			<path class="st2" d="M4675.9-307.6c201.9,0,422.8-71,574.5-131.5"/>
		</g>
		<g id="TYPE::PlantingFormation">
			<g id="TYPE_TITLE::PlantingFormation">
				<polygon class="st2" points="5228.8,200.4 5228.8,149.6 5649.2,149.6 5649.2,200.4 				"/>
				<text transform="matrix(1.6229 0 0 1.6158 5320.9741 183.7113)" class="st3 st4">PlantingFormation</text>
			</g>
			<g id="FIELD::PlantingFormation::clusters">
				<polygon class="st2" points="5228.8,250.6 5228.8,200.4 5649.2,200.4 5649.2,250.6 				"/>
				<text transform="matrix(1.6229 0 0 1.6158 5238.4658 231.6532)" class="st3 st5">clusters</text>
				<text transform="matrix(1.6229 0 0 1.6158 5469.9634 231.6532)" class="st3 st5">[</text>
				<text transform="matrix(1.6229 0 0 1.6158 5477.1504 231.6532)" class="st3 st5">PlantCluster</text>
				<text transform="matrix(1.6229 0 0 1.6158 5617.9639 231.6532)" class="st3 st5">!]!</text>
			</g>
			<g id="FIELD::PlantingFormation::draft">
				<polygon class="st2" points="5228.8,300.8 5228.8,250.6 5649.2,250.6 5649.2,300.8 				"/>
				<text transform="matrix(1.6229 0 0 1.6158 5238.4658 281.8468)" class="st3 st5">draft</text>
				<text transform="matrix(1.6229 0 0 1.6158 5537.4604 281.8468)" class="st3 st5">Boolean</text>
				<text transform="matrix(1.6229 0 0 1.6158 5632.3438 281.8468)" class="st3 st5">!</text>
			</g>
			<g id="FIELD::PlantingFormation::gardenCrop">
				<polygon class="st2" points="5228.8,351 5228.8,300.8 5649.2,300.8 5649.2,351 				"/>
				<text transform="matrix(1.6229 0 0 1.6158 5238.4658 332.0357)" class="st3 st5">gardenCrop</text>
				<text transform="matrix(1.6229 0 0 1.6158 5490.0645 332.0357)" class="st3 st5">GardenCrop</text>
				<text transform="matrix(1.6229 0 0 1.6158 5632.3438 332.0357)" class="st3 st5">!</text>
			</g>
			<g id="FIELD::PlantingFormation::gardenPlan">
				<polygon class="st2" points="5228.8,401.2 5228.8,351 5649.2,351 5649.2,401.2 				"/>
				<text transform="matrix(1.6229 0 0 1.6158 5238.4658 382.2404)" class="st3 st5">gardenPlan</text>
				<text transform="matrix(1.6229 0 0 1.6158 5494.3447 382.2404)" class="st3 st5">GardenPlan</text>
				<text transform="matrix(1.6229 0 0 1.6158 5632.3438 382.2404)" class="st3 st5">!</text>
			</g>
			<g id="FIELD::PlantingFormation::id">
				<polygon class="st2" points="5228.8,451.4 5228.8,401.2 5649.2,401.2 5649.2,451.4 				"/>
				<text transform="matrix(1.6229 0 0 1.6158 5238.4658 432.4293)" class="st3 st5">id</text>
				<text transform="matrix(1.6229 0 0 1.6158 5606.4917 432.4293)" class="st3 st5">ID</text>
				<text transform="matrix(1.6229 0 0 1.6158 5632.3438 432.4293)" class="st3 st5">!</text>
			</g>
			<g id="FIELD::PlantingFormation::pattern">
				<polygon class="st2" points="5228.8,501.6 5228.8,451.4 5649.2,451.4 5649.2,501.6 				"/>
				<text transform="matrix(1.6229 0 0 1.6158 5238.4658 482.6308)" class="st3 st5">pattern</text>
				<text transform="matrix(1.6229 0 0 1.6158 5455.5474 482.6308)" class="st3 st5">PlantingPattern</text>
				<text transform="matrix(1.6229 0 0 1.6158 5632.3438 482.6308)" class="st3 st5">!</text>
			</g>
			<g id="FIELD::PlantingFormation::plantSpacing">
				<polygon class="st2" points="5228.8,551.8 5228.8,501.6 5649.2,501.6 5649.2,551.8 				"/>
				<text transform="matrix(1.6229 0 0 1.6158 5238.4658 532.8292)" class="st3 st5">plantSpacing</text>
				<text transform="matrix(1.6229 0 0 1.6158 5603.5962 532.8292)" class="st3 st5">Int</text>
				<text transform="matrix(1.6229 0 0 1.6158 5632.3438 532.8292)" class="st3 st5">!</text>
			</g>
			<g id="FIELD::PlantingFormation::plantingLocation">
				<polygon class="st2" points="5228.8,602 5228.8,551.8 5649.2,551.8 5649.2,602 				"/>
				<text transform="matrix(1.6229 0 0 1.6158 5238.4658 583.0259)" class="st3 st5">plantingLocation</text>
				<text transform="matrix(1.6229 0 0 1.6158 5441.1475 583.0259)" class="st3 st5">PlantingLocation</text>
				<text transform="matrix(1.6229 0 0 1.6158 5632.3438 583.0259)" class="st3 st5">!</text>
			</g>
			<g id="FIELD::PlantingFormation::rowSpacing">
				<polygon class="st2" points="5228.8,652.2 5228.8,602 5649.2,602 5649.2,652.2 				"/>
				<text transform="matrix(1.6229 0 0 1.6158 5238.4658 633.2164)" class="st3 st5">rowSpacing</text>
				<text transform="matrix(1.6229 0 0 1.6158 5603.5962 633.2164)" class="st3 st5">Int</text>
				<text transform="matrix(1.6229 0 0 1.6158 5632.3438 633.2164)" class="st3 st5">!</text>
			</g>
			<g id="FIELD::PlantingFormation::shape">
				<polygon class="st2" points="5228.8,702.4 5228.8,652.2 5649.2,652.2 5649.2,702.4 				"/>
				<text transform="matrix(1.6229 0 0 1.6158 5238.4658 683.4116)" class="st3 st5">shape</text>
				<text transform="matrix(1.6229 0 0 1.6158 5557.5762 683.4116)" class="st3 st5">Shape</text>
				<text transform="matrix(1.6229 0 0 1.6158 5632.3438 683.4116)" class="st3 st5">!</text>
			</g>
		</g>
		<g>
			<path class="st2" d="M4675.9-257.8c249.9,0-49.6,370.3,128.3,545.1c102.8,100.9,261.5,135.5,394.3,144.9"/>
			<polygon class="st6" points="5198.8,426.7 5214.6,433.4 5198.1,438 			"/>
			<text transform="matrix(1.6229 0 0 1.6158 4804.1973 279.2684)" class="st7 st8">GardenCrop:plantingFormations</text>
			<path class="st2" d="M4675.9-257.8c249.9,0-49.6,370.3,128.3,545.1c102.8,100.9,261.5,135.5,394.3,144.9"/>
		</g>
		<g id="TYPE::Task">
			<g id="TYPE_TITLE::Task">
				<polygon class="st2" points="5236,-305.1 5236,-355.9 5642,-355.9 5642,-305.1 				"/>
				<text transform="matrix(1.6229 0 0 1.6158 5407.4736 -321.7879)" class="st3 st4">Task</text>
			</g>
			<g id="FIELD::Task::endDateWithShift">
				<polygon class="st2" points="5236,-254.9 5236,-305.1 5642,-305.1 5642,-254.9 				"/>
				<text transform="matrix(1.6229 0 0 1.6158 5245.7222 -273.8445)" class="st3 st5">endDateWithShift</text>
				<text transform="matrix(1.6229 0 0 1.6158 5468.4258 -273.8445)" class="st3 st5">ISO8601Date</text>
				<text transform="matrix(1.6229 0 0 1.6158 5625.0859 -273.8445)" class="st3 st5">!</text>
			</g>
			<g id="FIELD::Task::gardenCrop">
				<polygon class="st2" points="5236,-204.7 5236,-254.9 5642,-254.9 5642,-204.7 				"/>
				<text transform="matrix(1.6229 0 0 1.6158 5245.7222 -223.6461)" class="st3 st5">gardenCrop</text>
				<text transform="matrix(1.6229 0 0 1.6158 5482.8057 -223.6461)" class="st3 st5">GardenCrop</text>
				<text transform="matrix(1.6229 0 0 1.6158 5625.0859 -223.6461)" class="st3 st5">!</text>
			</g>
			<g id="FIELD::Task::gardenCropId">
				<polygon class="st2" points="5236,-154.5 5236,-204.7 5642,-204.7 5642,-154.5 				"/>
				<text transform="matrix(1.6229 0 0 1.6158 5245.7222 -173.4557)" class="st3 st5">gardenCropId</text>
				<text transform="matrix(1.6229 0 0 1.6158 5606.4233 -171.8493)" class="st3 st5">ID</text>
			</g>
			<g id="FIELD::Task::id">
				<polygon class="st2" points="5236,-104.3 5236,-154.5 5642,-154.5 5642,-104.3 				"/>
				<text transform="matrix(1.6229 0 0 1.6158 5245.7222 -123.2605)" class="st3 st5">id</text>
				<text transform="matrix(1.6229 0 0 1.6158 5599.2339 -123.2605)" class="st3 st5">ID</text>
				<text transform="matrix(1.6229 0 0 1.6158 5625.0859 -123.2605)" class="st3 st5">!</text>
			</g>
			<g id="FIELD::Task::startDateWithShift">
				<polygon class="st2" points="5236,-54.1 5236,-104.3 5642,-104.3 5642,-54.1 				"/>
				<text transform="matrix(1.6229 0 0 1.6158 5245.7222 -73.0668)" class="st3 st5">startDateWithShift</text>
				<text transform="matrix(1.6229 0 0 1.6158 5468.4258 -73.0668)" class="st3 st5">ISO8601Date</text>
				<text transform="matrix(1.6229 0 0 1.6158 5625.0859 -73.0668)" class="st3 st5">!</text>
			</g>
			<g id="FIELD::Task::status">
				<polygon class="st2" points="5236,-3.9 5236,-54.1 5642,-54.1 5642,-3.9 				"/>
				<text transform="matrix(1.6229 0 0 1.6158 5245.7222 -22.8701)" class="st3 st5">status</text>
				<text transform="matrix(1.6229 0 0 1.6158 5495.7651 -22.8701)" class="st3 st5">TaskStatus</text>
				<text transform="matrix(1.6229 0 0 1.6158 5625.0859 -22.8701)" class="st3 st5">!</text>
			</g>
			<g id="FIELD::Task::taskType">
				<polygon class="st2" points="5236,46.3 5236,-3.9 5642,-3.9 5642,46.3 				"/>
				<text transform="matrix(1.6229 0 0 1.6158 5245.7222 27.3251)" class="st3 st5">taskType</text>
				<text transform="matrix(1.6229 0 0 1.6158 5511.5879 27.3251)" class="st3 st5">TaskType</text>
				<text transform="matrix(1.6229 0 0 1.6158 5625.0859 27.3251)" class="st3 st5">!</text>
			</g>
		</g>
		<g>
			<path class="st2" d="M4675.9-106.5c177.9,0,378.8-13.3,529.5-25.9"/>
			<polygon class="st6" points="5204.8,-138.2 5221.4,-133.9 5205.8,-127 			"/>
			<text transform="matrix(1.6229 0 0 1.6158 4870.1772 -130.9846)" class="st7 st8">GardenCrop:tasks</text>
			<path class="st2" d="M4675.9-106.5c177.9,0,378.8-13.3,529.5-25.9"/>
		</g>
		<g>
			<path class="st2" d="M8245,279.6c-290.7,0-1104.8-52.9-1534.8-82.2"/>
			<polygon class="st6" points="6709.9,202.9 6694.2,196.2 6710.7,191.6 			"/>
			<text transform="matrix(1.6229 0 0 1.6158 7396.1958 222.9633)" class="st7 st8">Group:gardenPlan</text>
			<path class="st2" d="M8245,279.6c-290.7,0-1104.8-52.9-1534.8-82.2"/>
		</g>
		<g>
			<path class="st2" d="M8739.5,530.6c177.9,0,206.2,92,382,118.7c148.1,22.5,190.2,29.7,337,0c73.7-14.9,150.3-42.7,218.5-72.2"/>
			<polygon class="st6" points="9674.5,571.4 9691.6,570 9679.1,581.7 			"/>
			<text transform="matrix(1.6229 0 0 1.6158 9210.832 641.2625)" class="st7 st8">Group:landmarks</text>
			<path class="st2" d="M8739.5,530.6c177.9,0,206.2,92,382,118.7c148.1,22.5,190.2,29.7,337,0c73.7-14.9,150.3-42.7,218.5-72.2"/>
		</g>
		<g>
			<path class="st2" d="M8245,631.9c-156.2,0-329.6-14.2-471.7-29.5"/>
			<polygon class="st6" points="7772.7,607.8 7757.3,600.5 7774,596.6 			"/>
			<text transform="matrix(1.6229 0 0 1.6158 7881.2686 605.8686)" class="st7 st8">Group:plantingLocations</text>
			<path class="st2" d="M8245,631.9c-156.2,0-329.6-14.2-471.7-29.5"/>
		</g>
		<g id="TYPE::Layered">
			<g id="TYPE_TITLE::Layered">
				<polygon class="st2" points="9134.4,150.2 9134.4,79.5 9445.6,79.5 9445.6,150.2 				"/>
				<text transform="matrix(1.6229 0 0 1.6158 9237.4395 111.9564)" class="st3 st4">Layered</text>
				<text transform="matrix(1.6229 0 0 1.6158 9210.2168 138.0086)" class="st3 st5">&lt;&lt;interface&gt;&gt;</text>
			</g>
			<g id="FIELD::Layered::gardenPlan">
				<polygon class="st2" points="9134.4,200.4 9134.4,150.2 9445.6,150.2 9445.6,200.4 				"/>
				<text transform="matrix(1.6229 0 0 1.6158 9144.1104 181.4564)" class="st3 st5">gardenPlan</text>
				<text transform="matrix(1.6229 0 0 1.6158 9290.7266 181.4564)" class="st3 st5">GardenPlan</text>
				<text transform="matrix(1.6229 0 0 1.6158 9428.7041 181.4564)" class="st3 st5">!</text>
			</g>
			<g id="FIELD::Layered::groupId">
				<polygon class="st2" points="9134.4,250.6 9134.4,200.4 9445.6,200.4 9445.6,250.6 				"/>
				<text transform="matrix(1.6229 0 0 1.6158 9144.1104 231.6532)" class="st3 st5">groupId</text>
				<text transform="matrix(1.6229 0 0 1.6158 9368.3467 233.2596)" class="st3 st5">String</text>
			</g>
			<g id="FIELD::Layered::hidden">
				<polygon class="st2" points="9134.4,300.8 9134.4,250.6 9445.6,250.6 9445.6,300.8 				"/>
				<text transform="matrix(1.6229 0 0 1.6158 9144.1104 281.8468)" class="st3 st5">hidden</text>
				<text transform="matrix(1.6229 0 0 1.6158 9333.8193 281.8468)" class="st3 st5">Boolean</text>
				<text transform="matrix(1.6229 0 0 1.6158 9428.7041 281.8468)" class="st3 st5">!</text>
			</g>
			<g id="FIELD::Layered::id">
				<polygon class="st2" points="9134.4,351 9134.4,300.8 9445.6,300.8 9445.6,351 				"/>
				<text transform="matrix(1.6229 0 0 1.6158 9144.1104 332.0357)" class="st3 st5">id</text>
				<text transform="matrix(1.6229 0 0 1.6158 9402.8506 332.0357)" class="st3 st5">ID</text>
				<text transform="matrix(1.6229 0 0 1.6158 9428.7041 332.0357)" class="st3 st5">!</text>
			</g>
			<g id="FIELD::Layered::index">
				<polygon class="st2" points="9134.4,401.2 9134.4,351 9445.6,351 9445.6,401.2 				"/>
				<text transform="matrix(1.6229 0 0 1.6158 9144.1104 382.2404)" class="st3 st5">index</text>
				<text transform="matrix(1.6229 0 0 1.6158 9407.1445 383.8452)" class="st3 st5">Int</text>
			</g>
			<polygon class="st2" points="9134.4,451.4 9134.4,401.2 9445.6,401.2 9445.6,451.4 			"/>
			<text transform="matrix(1.6229 0 0 1.6158 9195.873 434.0451)" class="st3 st5">implementations</text>
			<g id="DERIVED_TYPE::Layered::Group">
				<polygon class="st2" points="9134.4,501.6 9134.4,451.4 9445.6,451.4 9445.6,501.6 				"/>
				<text transform="matrix(1.6229 0 0 1.6158 9144.1104 484.2403)" class="st3 st5">Group</text>
			</g>
			<g id="DERIVED_TYPE::Layered::Landmark">
				<polygon class="st2" points="9134.4,551.8 9134.4,501.6 9445.6,501.6 9445.6,551.8 				"/>
				<text transform="matrix(1.6229 0 0 1.6158 9144.1104 534.4339)" class="st3 st5">Landmark</text>
			</g>
			<g id="DERIVED_TYPE::Layered::PlantingLocation">
				<polygon class="st2" points="9134.4,602 9134.4,551.8 9445.6,551.8 9445.6,602 				"/>
				<text transform="matrix(1.6229 0 0 1.6158 9144.1104 584.6354)" class="st3 st5">PlantingLocation</text>
			</g>
		</g>
		<g>
			<path class="st2" d="M8739.5,229.7c123.7,0,260,27.4,365.8,55"/>
			<polygon class="st6" points="9106.2,279.6 9120.4,289.1 9103.3,290.4 			"/>
			<text transform="matrix(1.6229 0 0 1.6158 8866.9229 231.0031)" class="st7 st8">Group:children</text>
			<path class="st2" d="M8739.5,229.7c123.7,0,260,27.4,365.8,55"/>
		</g>
		<g>
			<path class="st2" d="M9704.9,289.3c-102.2,0-56.8-117.3-128.4-189.8C9475.2-3.2,9436.1-56.6,9291.6-56.6
				c-1814.1,0-1814.1,0-1814.1,0c-298.3,0-380.1-13-668.1,64.4c-33.3,8.9-67.3,20.6-100.6,33.6"/>
			<polygon class="st6" points="6711.3,47 6694.1,47.8 6707,36.6 			"/>
			<text transform="matrix(1.6229 0 0 1.6158 8391.7129 -63.4144)" class="st7 st8">Landmark:gardenPlan</text>
			<path class="st2" d="M9704.9,289.3c-102.2,0-56.8-117.3-128.4-189.8C9475.2-3.2,9436.1-56.6,9291.6-56.6
				c-1814.1,0-1814.1,0-1814.1,0c-298.3,0-380.1-13-668.1,64.4c-33.3,8.9-67.3,20.6-100.6,33.6"/>
		</g>
		<g id="TYPE::Shape">
			<g id="TYPE_TITLE::Shape">
				<polygon class="st2" points="10516.9,615.2 10516.9,564.4 10795,564.4 10795,615.2 				"/>
				<text transform="matrix(1.6229 0 0 1.6158 10613.8799 598.4711)" class="st3 st4">Shape</text>
			</g>
			<g id="FIELD::Shape::rotation">
				<polygon class="st2" points="10516.9,665.4 10516.9,615.2 10795,615.2 10795,665.4 				"/>
				<text transform="matrix(1.6229 0 0 1.6158 10526.5791 646.4129)" class="st3 st5">rotation</text>
				<text transform="matrix(1.6229 0 0 1.6158 10720.6113 646.4129)" class="st3 st5">Float</text>
				<text transform="matrix(1.6229 0 0 1.6158 10778.0869 646.4129)" class="st3 st5">!</text>
			</g>
			<g id="FIELD::Shape::segments">
				<polygon class="st2" points="10516.9,715.6 10516.9,665.4 10795,665.4 10795,715.6 				"/>
				<text transform="matrix(1.6229 0 0 1.6158 10526.5791 696.6097)" class="st3 st5">segments</text>
				<text transform="matrix(1.6229 0 0 1.6158 10653.0498 696.6097)" class="st3 st5">[</text>
				<text transform="matrix(1.6229 0 0 1.6158 10660.2393 696.6097)" class="st3 st5">Segment</text>
				<text transform="matrix(1.6229 0 0 1.6158 10763.7246 696.6097)" class="st3 st5">!]!</text>
			</g>
		</g>
		<g>
			<path class="st2" d="M10089.5,640c133.6,0,284.9,0,397.3,0"/>
			<polygon class="st6" points="10486.7,634.3 10502.9,640 10486.7,645.6 			"/>
			<text transform="matrix(1.6229 0 0 1.6158 10227.4199 633.2164)" class="st7 st8">Landmark:shape</text>
			<path class="st2" d="M10089.5,640c133.6,0,284.9,0,397.3,0"/>
		</g>
		<g>
			<path class="st2" d="M7214.1,414.7c-67.8,0-65.9-55.7-128.3-82.1c-116.2-49-153.7-35.5-276.4-64.7c-32.3-7.7-66.2-15.8-99.8-23.8
				"/>
			<polygon class="st6" points="6708.6,249.4 6694.2,240.2 6711.3,238.4 			"/>
			<text transform="matrix(1.6229 0 0 1.6158 6815.6294 259.9683)" class="st7 st8">PlantingLocation:gardenPlan</text>
			<path class="st2" d="M7214.1,414.7c-67.8,0-65.9-55.7-128.3-82.1c-116.2-49-153.7-35.5-276.4-64.7c-32.3-7.7-66.2-15.8-99.8-23.8
				"/>
		</g>
		<g>
			<path class="st2" d="M7744.1,464.6c156.8,0,331.5-13.2,472.5-27.2"/>
			<polygon class="st6" points="8215.8,431.7 8232.4,435.7 8216.9,442.9 			"/>
			<text transform="matrix(1.6229 0 0 1.6158 7887.5439 440.1471)" class="st7 st8">PlantingLocation:group</text>
			<path class="st2" d="M7744.1,464.6c156.8,0,331.5-13.2,472.5-27.2"/>
		</g>
		<g>
			<path class="st2" d="M7214.1,765.5c-110,0-34.7-153.3-128.3-210.8c-14.8-9.1-953.8-78.4-1406.4-111.4"/>
			<polygon class="st6" points="5679.5,448.8 5663.8,442 5680.4,437.6 			"/>
			<text transform="matrix(1.6229 0 0 1.6158 6264.9893 473.9409)" class="st7 st8">PlantingLocation:plantingFormations</text>
			<path class="st2" d="M7214.1,765.5c-110,0-34.7-153.3-128.3-210.8c-14.8-9.1-953.8-78.4-1406.4-111.4"/>
		</g>
		<g>
			<path class="st2" d="M7744.1,815.3c331.8,0,414.7,1.6,746.5,1.6c0,0,0,0,1408.2,0c206.8,0,437.2-63.6,588.6-114.6"/>
			<polygon class="st6" points="10485.4,696.6 10502.5,696.7 10489,707.2 			"/>
			<text transform="matrix(1.6229 0 0 1.6158 9183.1816 810.192)" class="st7 st8">PlantingLocation:shape</text>
			<path class="st2" d="M7744.1,815.3c331.8,0,414.7,1.6,746.5,1.6c0,0,0,0,1408.2,0c206.8,0,437.2-63.6,588.6-114.6"/>
		</g>
		<g>
			<path class="st2" d="M5277.4-573.1c-192.5,0-406,34.2-572.7,68.8"/>
			<polygon class="st6" points="4706.3,-498.6 4689.3,-500.7 4703.9,-509.6 			"/>
			<text transform="matrix(1.6229 0 0 1.6158 4857.6064 -570.1942)" class="st7 st8">Planting:gardenCrop</text>
			<path class="st2" d="M5277.4-573.1c-192.5,0-406,34.2-572.7,68.8"/>
		</g>
		<g>
			<path class="st2" d="M5650.7,376.1c173.1,0,361.2-46,509.6-93.7"/>
			<polygon class="st6" points="6158.1,276.7 6175.2,277 6161.6,287.4 			"/>
			<text transform="matrix(1.6229 0 0 1.6158 5780.355 309.8384)" class="st7 st8">PlantingFormation:gardenPlan</text>
			<path class="st2" d="M5650.7,376.1c173.1,0,361.2-46,509.6-93.7"/>
		</g>
		<g>
			<path class="st2" d="M5227.3,326.3c-70.2,0-322.3-243.6-527.7-454.8"/>
			<polygon class="st6" points="4696.2,-124.1 4689,-139.6 4704.3,-131.9 			"/>
			<text transform="matrix(1.6229 0 0 1.6158 4810.4756 -15.1459)" class="st7 st8">PlantingFormation:gardenCrop</text>
			<path class="st2" d="M5227.3,326.3c-70.2,0-322.3-243.6-527.7-454.8"/>
		</g>
		<g>
			<path class="st2" d="M5650.7,577.2c541.8,0,1174-5.7,1534.6-9.5"/>
			<polygon class="st6" points="7185,562 7201.2,567.5 7185.1,573.3 			"/>
			<text transform="matrix(1.6229 0 0 1.6158 6269.3921 565.6462)" class="st7 st8">PlantingFormation:plantingLocation</text>
			<path class="st2" d="M5650.7,577.2c541.8,0,1174-5.7,1534.6-9.5"/>
		</g>
		<g>
			<path class="st2" d="M5650.7,677c583.7,0,711.6,215.6,1295.3,215.6c0,0,0,0,2952.9,0c223,0,279.8-35.2,488.8-112.6
				c37.2-13.8,75.7-31.7,111.5-50"/>
			<polygon class="st6" points="10496.3,724.2 10513.3,721.8 10501.6,734.2 			"/>
			<text transform="matrix(1.6229 0 0 1.6158 8378.4863 885.8066)" class="st7 st8">PlantingFormation:shape</text>
			<path class="st2" d="M5650.7,677c583.7,0,711.6,215.6,1295.3,215.6c0,0,0,0,2952.9,0c223,0,279.8-35.2,488.8-112.6
				c37.2-13.8,75.7-31.7,111.5-50"/>
		</g>
		<g id="TYPE::PlantCluster">
			<g id="TYPE_TITLE::PlantCluster">
				<polygon class="st2" points="9783.4,-29.3 9783.4,-80.1 10011.1,-80.1 10011.1,-29.3 				"/>
				<text transform="matrix(1.6229 0 0 1.6158 9818.0137 -46.0331)" class="st3 st4">PlantCluster</text>
			</g>
			<g id="FIELD::PlantCluster::plantCount">
				<polygon class="st2" points="9783.4,20.9 9783.4,-29.3 10011.1,-29.3 10011.1,20.9 				"/>
				<text transform="matrix(1.6229 0 0 1.6158 9793.0645 1.9072)" class="st3 st5">plantCount</text>
				<text transform="matrix(1.6229 0 0 1.6158 9965.4609 1.9072)" class="st3 st5">Int</text>
				<text transform="matrix(1.6229 0 0 1.6158 9994.21 1.9072)" class="st3 st5">!</text>
			</g>
			<g id="FIELD::PlantCluster::rows">
				<polygon class="st2" points="9783.4,71.1 9783.4,20.9 10011.1,20.9 10011.1,71.1 				"/>
				<text transform="matrix(1.6229 0 0 1.6158 9793.0645 52.1024)" class="st3 st5">rows</text>
				<text transform="matrix(1.6229 0 0 1.6158 9862.0156 52.1024)" class="st3 st5">[</text>
				<text transform="matrix(1.6229 0 0 1.6158 9869.1865 52.1024)" class="st3 st5">PlantRow</text>
				<text transform="matrix(1.6229 0 0 1.6158 9979.8379 52.1024)" class="st3 st5">!]!</text>
			</g>
			<g id="FIELD::PlantCluster::shape">
				<polygon class="st2" points="9783.4,121.3 9783.4,71.1 10011.1,71.1 10011.1,121.3 				"/>
				<text transform="matrix(1.6229 0 0 1.6158 9793.0645 102.2944)" class="st3 st5">shape</text>
				<text transform="matrix(1.6229 0 0 1.6158 9919.4551 102.2944)" class="st3 st5">Shape</text>
				<text transform="matrix(1.6229 0 0 1.6158 9994.21 102.2944)" class="st3 st5">!</text>
			</g>
		</g>
		<g>
			<path class="st2" d="M5650.7,224.9c273.5,0,262.3-245,525.6-318.6c30.1-8.4-717.9-25.5,2574.3,3.2
				c314.7,2.8,395.5-26.4,707.9,11.3c99.8,12.1,210.1,37.3,294.9,59.4"/>
			<polygon class="st6" points="9754.8,-24.8 9769,-15.3 9751.9,-13.9 			"/>
			<text transform="matrix(1.6229 0 0 1.6158 7872.4604 -105.2448)" class="st7 st8">PlantingFormation:clusters</text>
			<path class="st2" d="M5650.7,224.9c273.5,0,262.3-245,525.6-318.6c30.1-8.4-717.9-25.5,2574.3,3.2
				c314.7,2.8,395.5-26.4,707.9,11.3c99.8,12.1,210.1,37.3,294.9,59.4"/>
		</g>
		<g>
			<path class="st2" d="M5233.8-230.4c-192.4,0-242.9-7-429.6-53.4c-32.9-8.2-66.9-18.4-100.3-29.5"/>
			<polygon class="st6" points="4702.6,-308.4 4689.1,-318.9 4706.2,-319 			"/>
			<text transform="matrix(1.6229 0 0 1.6158 4874.1143 -291.8696)" class="st7 st8">Task:gardenCrop</text>
			<path class="st2" d="M5233.8-230.4c-192.4,0-242.9-7-429.6-53.4c-32.9-8.2-66.9-18.4-100.3-29.5"/>
		</g>
		<g>
			<path class="st2" d="M9133.2,175c-171.1,0-212.4-25.1-382.7-41.8c-441.5-43.4-551.3-64.4-994.5-86.9
				c-297.6-15.1-372.4-7.5-670.3-9.7c-122.9-0.9-155.6-22.2-276.4,0c-32.9,6-66.8,14.8-99.9,25.2"/>
			<polygon class="st6" points="6711.4,67.6 6694.3,67.2 6708,56.9 			"/>
			<text transform="matrix(1.6229 0 0 1.6158 7903.9106 45.9894)" class="st7 st8">Layered:gardenPlan</text>
			<path class="st2" d="M9133.2,175c-171.1,0-212.4-25.1-382.7-41.8c-441.5-43.4-551.3-64.4-994.5-86.9
				c-297.6-15.1-372.4-7.5-670.3-9.7c-122.9-0.9-155.6-22.2-276.4,0c-32.9,6-66.8,14.8-99.9,25.2"/>
		</g>
		<g>
			<path class="st9" d="M9133.2,475.9c-120.6,0-253.2-12.6-366.2-27.2"/>
			<polygon class="st6" points="8766.7,454.2 8751.4,446.5 8768.2,443 			"/>
			<path class="st2" d="M9133.2,475.9c-120.6,0-253.2-12.6-366.2-27.2"/>
		</g>
		<g>
			<path class="st9" d="M9446.7,527.4c75,0,156.5-8.7,229.1-19.6"/>
			<polygon class="st6" points="9674.7,502 9691.5,505.1 9676.4,513.1 			"/>
			<path class="st2" d="M9446.7,527.4c75,0,156.5-8.7,229.1-19.6"/>
		</g>
		<g>
			<path class="st9" d="M9133.2,577.2c-175.8,0-208.3,77.4-382.7,99.7c-387.5,49.7-491.6,13.9-878.1-43.4
				c-32.1-4.8-65.7-10.1-99.1-15.7"/>
			<polygon class="st6" points="7772.6,623.2 7757.6,614.9 7774.5,612.1 			"/>
			<path class="st2" d="M9133.2,577.2c-175.8,0-208.3,77.4-382.7,99.7c-387.5,49.7-491.6,13.9-878.1-43.4
				c-32.1-4.8-65.7-10.1-99.1-15.7"/>
		</g>
		<g id="TYPE::Segment">
			<g id="TYPE_TITLE::Segment">
				<polygon class="st2" points="11199.3,327.2 11199.3,276.4 11606.7,276.4 11606.7,327.2 				"/>
				<text transform="matrix(1.6229 0 0 1.6158 11344.7705 310.4838)" class="st3 st4">Segment</text>
			</g>
			<g id="FIELD::Segment::bezierControlPoints">
				<polygon class="st2" points="11199.3,377.4 11199.3,327.2 11606.7,327.2 11606.7,377.4 				"/>
				<text transform="matrix(1.6229 0 0 1.6158 11208.9668 358.4272)" class="st3 st5">bezierControlPoints</text>
				<text transform="matrix(1.6229 0 0 1.6158 11448.957 358.4272)" class="st3 st5">[</text>
				<text transform="matrix(1.6229 0 0 1.6158 11456.1318 358.4272)" class="st3 st5">Coordinate</text>
				<text transform="matrix(1.6229 0 0 1.6158 11582.6162 358.4272)" class="st3 st5">!]</text>
			</g>
			<g id="FIELD::Segment::start">
				<polygon class="st2" points="11199.3,427.6 11199.3,377.4 11606.7,377.4 11606.7,427.6 				"/>
				<text transform="matrix(1.6229 0 0 1.6158 11208.9668 408.6256)" class="st3 st5">start</text>
				<text transform="matrix(1.6229 0 0 1.6158 11463.3281 408.6256)" class="st3 st5">Coordinate</text>
				<text transform="matrix(1.6229 0 0 1.6158 11589.8018 408.6256)" class="st3 st5">!</text>
			</g>
		</g>
		<g>
			<path class="st2" d="M10796.5,689.9c201.7,0,398.5-144.7,510.4-244.7"/>
			<polygon class="st6" points="11302,442 11317.8,435.4 11309.7,450.4 			"/>
			<text transform="matrix(1.6229 0 0 1.6158 10924.2402 609.0892)" class="st7 st8">Shape:segments</text>
			<path class="st2" d="M10796.5,689.9c201.7,0,398.5-144.7,510.4-244.7"/>
		</g>
		<g>
			<path class="st2" d="M10011.9,96.2c137.6,0,419.4,293.2,559.5,449"/>
			<polygon class="st6" points="10574.8,540.6 10581.3,556.4 10566.4,548.1 			"/>
			<text transform="matrix(1.6229 0 0 1.6158 10217.9805 206.8744)" class="st7 st8">PlantCluster:shape</text>
			<path class="st2" d="M10011.9,96.2c137.6,0,419.4,293.2,559.5,449"/>
		</g>
		<g id="TYPE::PlantRow">
			<g id="TYPE_TITLE::PlantRow">
				<polygon class="st2" points="11294.1,134.2 11294.1,83.3 11511.8,83.3 11511.8,134.2 				"/>
				<text transform="matrix(1.6229 0 0 1.6158 11340.7295 117.4193)" class="st3 st4">PlantRow</text>
			</g>
			<g id="FIELD::PlantRow::end">
				<polygon class="st2" points="11294.1,184.4 11294.1,134.2 11511.8,134.2 11511.8,184.4 				"/>
				<text transform="matrix(1.6229 0 0 1.6158 11303.8203 165.3643)" class="st3 st5">end</text>
				<text transform="matrix(1.6229 0 0 1.6158 11368.4717 165.3643)" class="st3 st5">Coordinate</text>
				<text transform="matrix(1.6229 0 0 1.6158 11494.9443 165.3643)" class="st3 st5">!</text>
			</g>
			<g id="FIELD::PlantRow::start">
				<polygon class="st2" points="11294.1,234.6 11294.1,184.4 11511.8,184.4 11511.8,234.6 				"/>
				<text transform="matrix(1.6229 0 0 1.6158 11303.8203 215.5579)" class="st3 st5">start</text>
				<text transform="matrix(1.6229 0 0 1.6158 11368.4717 215.5579)" class="st3 st5">Coordinate</text>
				<text transform="matrix(1.6229 0 0 1.6158 11494.9443 215.5579)" class="st3 st5">!</text>
			</g>
		</g>
		<g>
			<path class="st2" d="M10011.9,46.3c460.3,0,1003.5,62.1,1252.4,94.1"/>
			<polygon class="st6" points="11264.8,135 11280.1,142.7 11263.4,146.2 			"/>
			<text transform="matrix(1.6229 0 0 1.6158 10574.8662 58.8593)" class="st7 st8">PlantCluster:rows</text>
			<path class="st2" d="M10011.9,46.3c460.3,0,1003.5,62.1,1252.4,94.1"/>
		</g>
		<g id="TYPE::Coordinate">
			<g id="TYPE_TITLE::Coordinate">
				<polygon class="st2" points="12131.6,243.6 12131.6,192.7 12290.1,192.7 12290.1,243.6 				"/>
				<text transform="matrix(1.6229 0 0 1.6158 12139.7178 226.823)" class="st3 st4">Coordinate</text>
			</g>
			<g id="FIELD::Coordinate::x">
				<polygon class="st2" points="12131.6,293.8 12131.6,243.6 12290.1,243.6 12290.1,293.8 				"/>
				<text transform="matrix(1.6229 0 0 1.6158 12141.3369 274.7665)" class="st3 st5">x</text>
				<text transform="matrix(1.6229 0 0 1.6158 12215.7412 274.7665)" class="st3 st5">Float</text>
				<text transform="matrix(1.6229 0 0 1.6158 12273.2207 274.7665)" class="st3 st5">!</text>
			</g>
			<g id="FIELD::Coordinate::y">
				<polygon class="st2" points="12131.6,344 12131.6,293.8 12290.1,293.8 12290.1,344 				"/>
				<text transform="matrix(1.6229 0 0 1.6158 12141.3369 324.9648)" class="st3 st5">y</text>
				<text transform="matrix(1.6229 0 0 1.6158 12215.7412 324.9648)" class="st3 st5">Float</text>
				<text transform="matrix(1.6229 0 0 1.6158 12273.2207 324.9648)" class="st3 st5">!</text>
			</g>
		</g>
		<g>
			<path class="st2" d="M11608.2,352c93.7,0,347.1-40.3,493.2-65"/>
			<polygon class="st6" points="12100.2,281.2 12117.1,284.1 12102.1,292.3 			"/>
			<text transform="matrix(1.6229 0 0 1.6158 11735.9658 296.9701)" class="st7 st8">Segment:bezierControlPoints</text>
			<path class="st2" d="M11608.2,352c93.7,0,347.1-40.3,493.2-65"/>
		</g>
		<g>
			<path class="st2" d="M11608.2,401.9c175.6,0,225,19.4,394.2-27.7c34.3-9.5,69.5-25,100.9-41.3"/>
			<polygon class="st6" points="12100.3,327.2 12117.2,324.6 12105.6,337.2 			"/>
			<text transform="matrix(1.6229 0 0 1.6158 11806.9688 366.1498)" class="st7 st8">Segment:start</text>
			<path class="st2" d="M11608.2,401.9c175.6,0,225,19.4,394.2-27.7c34.3-9.5,69.5-25,100.9-41.3"/>
		</g>
		<g>
			<path class="st2" d="M11512.9,158.9c218.2,0,275.8-5.6,489.5,38.6c33.1,6.9,68.2,17.5,99.9,28.5"/>
			<polygon class="st6" points="12104,221.2 12117.4,231.9 12100.2,231.8 			"/>
			<text transform="matrix(1.6229 0 0 1.6158 11805.0674 153.7773)" class="st7 st8">PlantRow:end</text>
			<path class="st2" d="M11512.9,158.9c218.2,0,275.8-5.6,489.5,38.6c33.1,6.9,68.2,17.5,99.9,28.5"/>
		</g>
		<g>
			<path class="st2" d="M11512.9,208.8c99.7,0,123.8,13.4,223.1,22.2c125.4,11.2,269.7,22.3,365.6,29.5"/>
			<polygon class="st6" points="12101.6,255 12117.3,261.8 12100.8,266.2 			"/>
			<text transform="matrix(1.6229 0 0 1.6158 11801.9238 222.9633)" class="st7 st8">PlantRow:start</text>
			<path class="st2" d="M11512.9,208.8c99.7,0,123.8,13.4,223.1,22.2c125.4,11.2,269.7,22.3,365.6,29.5"/>
		</g>
	</g>
</g>
</svg>
